<svg width="204" height="205" viewBox="0 0 204 205" fill="none" xmlns="http://www.w3.org/2000/svg">
<path d="M101.281 0.00463867C101.519 -0.0139703 101.775 0.0221717 102.031 0.133545C102.46 0.321399 102.696 0.641625 102.793 0.801514L103.11 1.69214L103.321 2.7937C103.358 2.98282 103.428 3.17284 103.543 3.36792L103.848 3.88354L104.153 4.38745C104.517 5.00187 104.667 5.69372 104.598 6.40308L104.481 7.57495C104.464 7.7453 104.491 7.88524 104.539 8.00854L104.739 8.53589L104.949 9.06323C105.086 9.41198 105.22 9.76993 105.36 10.1179L105.781 11.1726C105.976 11.6585 106.098 12.1633 106.145 12.6843L106.192 13.2585L106.25 13.821C106.294 14.3126 106.28 14.8106 106.215 15.3093L106.133 15.907L106.063 16.5046C106.044 16.6519 106.059 16.7628 106.098 16.8562L106.321 17.3718L106.543 17.8992C106.652 18.1591 106.782 18.425 106.953 18.6843L107.293 19.1765L107.621 19.6804C108.046 20.3232 108.2 21.0656 108.09 21.825L108.008 22.4226L107.926 22.9734L108.301 23.4187L108.699 23.8992C109.197 24.5043 109.46 25.2478 109.391 26.0554L109.332 26.6531L109.285 27.239C109.264 27.4892 109.276 27.7182 109.321 27.9304L109.555 29.032C109.629 29.3765 109.713 29.722 109.801 30.0632L109.942 30.614L110.082 31.1531C110.14 31.3782 110.234 31.6068 110.364 31.8328L110.656 32.3484L110.949 32.8523C111.417 33.6627 111.39 34.5424 111.078 35.3132L110.821 35.9578L110.563 36.5906C110.481 36.792 110.487 36.8895 110.492 36.9187L110.61 37.4695L110.715 38.032C110.773 38.3208 110.858 38.6075 110.961 38.8875L111.16 39.4148L111.348 39.9421C111.394 40.0682 111.493 40.2363 111.676 40.4226L112.133 40.8914L112.602 41.3601C113.152 41.9213 113.492 42.6561 113.469 43.5046L113.457 44.0789L113.446 44.6648C113.442 44.8033 113.468 44.9197 113.528 45.0398L113.785 45.5671L114.043 46.0828C114.354 46.6986 114.463 47.3625 114.383 48.0398L114.324 48.6375L114.254 49.2234C114.21 49.5991 114.165 49.9771 114.137 50.3484L114.09 50.9343L114.055 51.532C114.044 51.6815 114.063 51.8053 114.114 51.9187L114.348 52.4343L114.524 52.8445L114.852 52.5515C115.224 52.1883 115.644 51.877 116.106 51.6257L117.137 51.0632C117.313 50.9672 117.447 50.851 117.547 50.7234L117.899 50.2781L118.239 49.8328C118.301 49.7533 118.379 49.6181 118.426 49.3757L118.555 48.7195L118.684 48.075C118.817 47.3958 119.119 46.7573 119.645 46.2468L120.043 45.8484L120.453 45.4617C120.844 45.0825 121.285 44.7651 121.778 44.5242L122.317 44.2664L122.856 43.9968C123.087 43.884 123.278 43.7557 123.43 43.6101L123.84 43.2234L124.239 42.8367C124.571 42.5186 124.933 42.2198 125.317 41.9578L125.797 41.6414L126.266 41.3132C126.383 41.2333 126.476 41.1292 126.547 40.9968L126.828 40.4929L127.098 39.9773C127.36 39.4915 127.699 39.0591 128.106 38.6882L128.516 38.3132L128.938 37.9265C128.999 37.8707 129.06 37.7805 129.114 37.6101L129.489 36.4148C129.715 35.6945 130.166 35.0827 130.836 34.6804L131.34 34.3875L131.844 34.0828C131.938 34.0262 132.005 33.958 132.055 33.8601L132.313 33.3445L132.582 32.8171C132.959 32.0872 133.589 31.608 134.328 31.364L135.547 30.9656C135.576 30.956 135.595 30.9362 135.606 30.9304H135.617L135.91 30.4382L136.192 29.9343C136.529 29.3544 137.011 28.9 137.598 28.5867L138.653 28.0242C138.745 27.9738 138.799 27.9221 138.84 27.8484L139.121 27.3328L139.403 26.8289C139.643 26.3888 139.925 25.9782 140.258 25.6101L140.633 25.1882L141.02 24.7781C141.383 24.3773 141.801 24.0385 142.274 23.7703L142.789 23.4773L143.211 23.2312L143.328 22.6101L143.457 21.9539L143.656 21.3093C143.754 21.0991 143.89 20.8992 144.055 20.7117C144.387 20.3349 144.798 20.094 145.227 19.9617L145.848 19.7742L146.469 19.575C146.69 19.507 146.815 19.4258 146.891 19.3523L147.301 18.9656L147.699 18.5671C147.712 18.5547 147.769 18.505 147.805 18.321L147.934 17.6648L148.063 17.0203L148.25 16.3875C148.511 15.7948 148.978 15.3099 149.633 15.0281L150.196 14.7937L150.758 14.5476L151.203 14.3835C151.386 14.3341 151.603 14.2967 151.824 14.3015C152.068 14.3076 152.435 14.3666 152.785 14.6179C152.977 14.756 153.125 14.9249 153.231 15.0984L153.43 15.6257L153.489 15.8835L153.547 16.1296C153.686 16.774 153.424 17.2948 153.254 17.5593C153.072 17.8436 152.838 18.0852 152.621 18.2742L152.117 18.7078L151.625 19.1414C151.559 19.199 151.529 19.2434 151.52 19.2585L151.508 19.2703L151.414 19.8328L151.309 20.3835C151.235 20.7928 151.144 21.2016 151.039 21.6023L150.899 22.1531L150.758 22.6921C150.675 23.0111 150.613 23.3362 150.559 23.6648L150.371 24.7898C150.311 25.1503 150.248 25.5167 150.196 25.8796L150.031 27.0046C149.98 27.3658 149.934 27.7304 149.891 28.0945L149.832 28.657L149.762 29.2312C149.711 29.6657 149.64 30.0981 149.539 30.5203L149.399 31.0593L149.27 31.6101C149.163 32.0591 149.018 32.4976 148.836 32.9226L148.614 33.45L148.391 33.9656C148.249 34.2962 148.111 34.6279 147.981 34.9617L147.781 35.489L147.571 36.0164C147.356 36.5634 147.036 37.0529 146.633 37.4812L145.766 38.3953L145.789 39.5671C145.805 40.2937 145.584 40.9749 145.156 41.5593L144.453 42.5203C144.385 42.6143 144.353 42.6918 144.348 42.7781L144.324 43.364L144.289 43.9382C144.256 44.5078 144.119 45.0613 143.879 45.5789L143.633 46.0945L143.399 46.6101C143.338 46.7419 143.303 46.8908 143.305 47.0671L143.317 47.6531V48.239C143.321 48.6713 143.311 49.1035 143.281 49.5281L143.235 50.1023L143.199 50.6765C143.164 51.1806 143.075 51.6761 142.918 52.1531L142.742 52.6921L142.567 53.2195C142.35 53.8777 141.945 54.4254 141.442 54.8601L140.434 55.7273C140.396 55.7596 140.36 55.7744 140.352 55.7859L140.305 56.3367L140.235 56.9109C140.199 57.212 140.19 57.5255 140.199 57.8484L140.211 58.4343L140.223 59.032C140.24 59.6081 140.164 60.178 139.965 60.7195L139.766 61.2468L139.578 61.7742C139.413 62.2256 139.19 62.6614 138.934 63.075L138.324 64.0593C138.325 64.0691 138.332 64.0842 138.336 64.1062L138.453 64.7273L138.5 65.032L138.922 65.0671L140.164 65.2781C140.366 65.3112 140.507 65.2875 140.61 65.2546L141.149 65.0906L141.676 64.9148C141.971 64.8208 142.27 64.7087 142.555 64.575L143.059 64.3289L143.574 64.0945C144.007 63.8913 144.459 63.7263 144.922 63.614L145.473 63.4851L146.024 63.3445C146.468 63.2371 146.922 63.1683 147.383 63.1335L147.957 63.0984L148.531 63.0515C148.792 63.0319 149.037 62.9775 149.27 62.8992L149.809 62.7234L150.336 62.5359C150.442 62.5001 150.578 62.4335 150.735 62.2781L151.192 61.821L151.637 61.364C152.221 60.7772 152.991 60.4631 153.852 60.5203L154.461 60.5554L155.059 60.6023C155.288 60.6178 155.485 60.5957 155.656 60.5437L156.735 60.2156C156.938 60.1538 157.141 60.0512 157.344 59.9109L157.824 59.571L158.317 59.2429L158.867 58.9382C159.436 58.7103 160.046 58.6898 160.637 58.8328L161.27 58.9851L161.914 59.1375C162.076 59.1763 162.133 59.1553 162.149 59.1492L162.676 58.9382L163.192 58.7273C163.459 58.6191 163.729 58.4891 163.989 58.3289L164.481 58.0125L164.985 57.7078C165.563 57.3512 166.207 57.1789 166.883 57.1921L167.481 57.2039L168.067 57.2156C168.328 57.2208 168.572 57.1921 168.793 57.1335L169.332 56.9929L169.883 56.8406C169.907 56.8332 169.98 56.7999 170.094 56.6648L170.528 56.1609L170.961 55.6453C171.423 55.1008 172.027 54.6781 172.778 54.5203L173.34 54.4031L173.891 54.2859C174.239 54.2133 174.59 54.1377 174.934 54.0515L175.473 53.9109L176.024 53.782C176.611 53.6348 177.211 53.6229 177.805 53.7234L178.426 53.8289L179.024 53.9226L179.481 53.5945L179.961 53.2429C180.517 52.8348 181.164 52.6118 181.86 52.5867L183.031 52.5398C183.256 52.5314 183.464 52.4954 183.653 52.4226L184.18 52.2117L184.696 52.0125C185.117 51.85 185.555 51.7221 185.996 51.6257L186.547 51.5085L187.098 51.3796C187.295 51.3367 187.481 51.3095 187.637 51.2859C187.714 51.2743 187.803 51.257 187.895 51.2507C187.958 51.2464 188.141 51.2351 188.352 51.2742L188.457 51.2976L188.574 51.321C188.648 51.3351 188.797 51.3588 188.961 51.4382C189.114 51.5121 189.444 51.7156 189.653 52.1414C189.894 52.6347 189.811 53.1161 189.676 53.4187C189.562 53.6715 189.408 53.831 189.336 53.8992C189.188 54.0383 189.039 54.1219 188.996 54.1453C188.932 54.1802 188.875 54.2087 188.832 54.2273C188.677 54.2955 188.468 54.3621 188.27 54.4265L187.684 54.6257L187.098 54.8015L186.864 55.3171L186.594 55.8562C186.415 56.2236 186.238 56.5947 186.055 56.9578L185.785 57.4851L185.516 58.0242C185.183 58.6861 184.659 59.1963 183.981 59.5007L183.43 59.7468L182.891 59.9812C182.533 60.1415 182.18 60.3104 181.824 60.4734L180.746 60.9656H180.735C180.732 60.9698 180.719 60.9822 180.711 61.0007L180.477 61.5632L180.231 62.1375C179.977 62.7276 179.59 63.2392 179.071 63.6375L178.625 63.989L178.18 64.3289C178.045 64.432 177.929 64.5645 177.828 64.739L177.535 65.2546L177.242 65.7585C176.863 66.4212 176.282 66.8882 175.578 67.1414L175.004 67.3523L174.418 67.5515C174.128 67.6558 173.873 67.7851 173.645 67.9265L173.153 68.2312L172.672 68.5359C172.667 68.5447 172.653 68.5686 172.637 68.6179L172.438 69.239L172.25 69.8601C172.042 70.5337 171.654 71.1418 171.055 71.5828L170.61 71.9226L170.153 72.2507C169.688 72.5926 169.164 72.8426 168.606 73.0007L167.996 73.1648L167.422 73.3171L167.211 73.7976L166.965 74.3484C166.758 74.797 166.51 75.2226 166.227 75.614L165.887 76.0828L165.559 76.5515C165.124 77.152 164.519 77.5405 163.836 77.7468L163.239 77.9343L162.629 78.1101C162.38 78.1855 162.19 78.282 162.043 78.3914L161.586 78.7312L161.141 79.071C161.062 79.1298 160.987 79.2217 160.918 79.3757L160.672 79.9382L160.414 80.5007C160.228 80.9241 160.024 81.3319 159.793 81.7195L159.489 82.2234L159.196 82.7273C158.776 83.4333 158.121 83.8762 157.367 84.075L156.125 84.4031C155.877 84.4689 155.703 84.5647 155.574 84.6609L155.117 85.0007L154.66 85.3289C154.53 85.4264 154.417 85.5586 154.321 85.7273L154.028 86.2312L153.735 86.7468C153.506 87.1467 153.252 87.5267 152.973 87.8835L152.621 88.3289L152.281 88.7859C152.189 88.9037 152.083 89.0099 151.989 89.1257L152.446 89.5359L152.703 89.782L153.102 89.6296L153.735 89.3835C154.398 89.1274 155.131 89.043 155.867 89.2546L156.946 89.5593C157.593 89.7455 158.15 90.1153 158.61 90.5789L159.547 91.5164C159.608 91.5775 159.651 91.6076 159.676 91.6218C159.697 91.6334 159.716 91.6443 159.723 91.6453L160.274 91.7273L160.836 91.7976C161.201 91.8502 161.572 91.903 161.938 91.95L162.5 92.0203L163.051 92.0906C163.545 92.1539 164.028 92.2865 164.492 92.4656L165.02 92.6648L165.559 92.864C165.743 92.9348 165.937 92.9786 166.145 92.9812L166.719 92.9929H167.293C167.878 93.0005 168.445 93.1307 168.981 93.3679L169.508 93.5906L170.024 93.825L170.047 93.8367C170.058 93.8373 170.098 93.8309 170.164 93.8132L171.406 93.4851C172.103 93.2978 172.832 93.3124 173.528 93.614L174.055 93.8484L174.582 94.071C174.856 94.1904 175.133 94.2823 175.414 94.3523L175.965 94.4929L176.504 94.6335C176.784 94.7031 177.077 94.7411 177.371 94.7625L177.934 94.8093L178.496 94.8445C179.213 94.8964 179.857 95.1799 180.395 95.6179L180.875 96.0164L181.192 96.2742L181.66 96.1101L182.293 95.8757L182.985 95.7351C183.227 95.7165 183.478 95.7311 183.735 95.7937C184.25 95.9198 184.664 96.2003 184.977 96.532L185.446 97.0242L185.832 97.4343L186.254 97.3757L186.852 97.282L187.461 97.2585C188.057 97.2942 188.612 97.5198 189.09 97.9031L189.582 98.2898L189.922 98.5593L190.414 98.4187L191.035 98.2195C191.781 97.9878 192.582 98.0163 193.321 98.407L193.836 98.6882L194.352 98.9578C194.708 99.1466 195.065 99.3422 195.418 99.5437L195.922 99.8367L196.438 100.13C196.659 100.255 196.886 100.334 197.106 100.387L197.645 100.528L198.196 100.657C198.208 100.66 198.292 100.672 198.477 100.598L199.11 100.352L199.742 100.094L200.422 99.9187C200.674 99.8891 200.948 99.8934 201.231 99.9656C201.526 100.041 201.779 100.177 201.992 100.341L202.52 100.903L202.848 101.407L203.188 101.911C203.367 102.181 203.733 102.829 203.481 103.61C203.206 104.454 202.453 104.737 202.11 104.829L201.571 104.981L201.02 105.122C200.276 105.319 199.544 105.216 198.887 104.946L198.242 104.677L197.949 104.559L197.75 104.794L197.293 105.309C196.728 105.947 195.927 106.363 194.973 106.27L194.387 106.212L193.789 106.153C193.677 106.142 193.6 106.159 193.52 106.2L193.004 106.469L192.489 106.727C191.811 107.077 191.075 107.154 190.356 106.997L189.746 106.868L189.137 106.727H189.114L189.125 106.716L188.621 107.032L188.117 107.337C187.721 107.579 187.306 107.79 186.887 107.969L186.371 108.192L185.844 108.415C185.195 108.692 184.502 108.746 183.828 108.614L183.231 108.497L182.621 108.38H182.61L181.602 109.012C181.155 109.296 180.674 109.521 180.172 109.669L179.633 109.821L179.094 109.985C178.378 110.196 177.657 110.125 176.996 109.891L176.375 109.669L175.742 109.446C175.728 109.441 175.716 109.437 175.707 109.434L175.25 109.669L174.735 109.938C174.499 110.058 174.263 110.218 174.02 110.419L173.528 110.817L173.047 111.216C172.525 111.646 171.903 111.935 171.207 112.012L170.082 112.13C169.635 112.179 169.18 112.203 168.723 112.188L168.149 112.165L167.563 112.153C167.382 112.147 167.222 112.174 167.071 112.235L166.543 112.446L166.016 112.669C165.685 112.804 165.348 112.94 165.02 113.091L164.504 113.337L163.977 113.571C163.223 113.917 162.436 113.903 161.715 113.653L161.082 113.43L160.449 113.219C160.234 113.145 160.104 113.137 160.028 113.149L159.465 113.255L158.914 113.348C158.755 113.376 158.586 113.445 158.41 113.559L157.906 113.876L157.414 114.204C156.957 114.501 156.46 114.73 155.938 114.872L155.399 115.012L154.86 115.165C154.391 115.292 153.905 115.364 153.418 115.387L152.844 115.411L152.281 115.446C152.179 115.451 152.081 115.479 151.977 115.528C152.332 115.728 152.637 115.996 152.879 116.325L153.184 116.841L153.442 117.391L153.688 117.942C153.769 118.117 153.868 118.234 153.969 118.317L154.414 118.669L154.848 119.032C155.137 119.267 155.426 119.501 155.715 119.735L156.16 120.087L156.594 120.45C156.85 120.657 157.124 120.85 157.403 121.036L157.871 121.352L158.352 121.669C158.929 122.055 159.341 122.592 159.606 123.216L159.852 123.778L160.086 124.352C160.15 124.502 160.228 124.583 160.297 124.634L160.754 124.962L161.211 125.302C161.465 125.489 161.736 125.668 162.02 125.829L163.028 126.391C163.537 126.681 163.974 127.072 164.328 127.54L164.668 127.985L165.02 128.442C165.081 128.522 165.163 128.596 165.301 128.653L165.852 128.887L166.403 129.11C166.967 129.345 167.47 129.693 167.879 130.153L168.629 130.997C169.005 131.42 169.296 131.909 169.508 132.438L169.742 133.012L169.906 133.434L170.41 133.563L171.043 133.704C171.674 133.852 172.272 134.134 172.766 134.583L173.176 134.958L173.598 135.344C173.904 135.623 174.194 135.92 174.477 136.223L175.25 137.044C175.634 137.455 175.94 137.931 176.164 138.45L176.399 139.012L176.645 139.575C176.707 139.718 176.778 139.785 176.844 139.833L177.301 140.161L177.77 140.501C178.297 140.876 178.701 141.366 178.977 141.942L179.235 142.493L179.399 142.833L179.973 142.903L180.664 142.985C181.119 143.04 181.607 143.201 182.024 143.559C182.235 143.741 182.401 143.949 182.528 144.169L182.797 144.848L182.949 145.505L183.114 146.149L183.16 146.29L183.617 146.618L184.074 146.958C184.505 147.272 184.884 147.641 185.199 148.071L185.539 148.54L185.821 148.915C185.831 148.916 185.842 148.925 185.856 148.927L187.262 149.067C187.731 149.114 188.248 149.277 188.68 149.665C188.899 149.862 189.063 150.087 189.184 150.321L189.43 151.024L189.688 152.384C189.74 152.651 189.825 153.209 189.594 153.755C189.452 154.088 189.187 154.431 188.762 154.634C188.366 154.821 187.986 154.813 187.731 154.774L186.934 154.657C186.128 154.534 185.549 154.006 185.176 153.555L184.742 153.028L184.321 152.512C184.262 152.441 184.217 152.416 184.203 152.407C184.193 152.4 184.198 152.394 184.203 152.395L183.641 152.29L183.09 152.184C182.71 152.11 182.331 152.032 181.953 151.95L181.403 151.833L180.852 151.704C180.416 151.609 179.981 151.495 179.563 151.341L178.508 150.942C178.184 150.822 177.854 150.715 177.524 150.614L176.446 150.286C176.107 150.183 175.768 150.084 175.426 149.993L174.875 149.841L174.336 149.7C174.222 149.67 174.065 149.657 173.844 149.7L173.211 149.817L172.59 149.946C171.734 150.114 170.893 149.903 170.223 149.313L169.754 148.903L169.297 148.493C169.151 148.364 169.018 148.309 168.91 148.282L168.371 148.141L167.821 148.012C167.542 147.944 167.253 147.893 166.953 147.872L166.379 147.837L165.805 147.79C165.15 147.745 164.539 147.536 164 147.169L163.508 146.829L163.028 146.501C162.789 146.337 162.545 146.2 162.301 146.102L161.774 145.891L161.258 145.68C161.181 145.649 161.068 145.632 160.895 145.657L160.274 145.751L159.664 145.844C158.732 145.983 157.884 145.644 157.274 144.977L156.84 144.497L156.489 144.122L156.055 144.192L155.446 144.286C154.815 144.383 154.171 144.343 153.559 144.122L153.02 143.923L152.492 143.735C152.082 143.586 151.678 143.407 151.285 143.208L150.781 142.95L150.266 142.692C149.867 142.49 149.481 142.259 149.106 142.001L148.614 141.661L148.133 141.333C148.113 141.319 148.094 141.312 148.086 141.309C148.08 141.308 148.049 141.294 148.004 141.298L147.406 141.344L146.809 141.403C146.045 141.464 145.314 141.246 144.699 140.782L144.219 140.43L143.75 140.067C143.72 140.044 143.695 140.033 143.692 140.032C143.685 140.03 143.671 140.031 143.645 140.032L143.047 140.055L142.449 140.091C141.963 140.112 141.481 140.089 141.008 140.02L140.446 139.927L139.883 139.844C139.527 139.792 139.165 139.754 138.805 139.716L138.664 139.692C138.663 139.931 138.667 140.171 138.617 140.407L138.489 141.028L138.406 141.427L138.746 141.719L139.239 142.165C139.57 142.455 139.867 142.827 140.024 143.302C140.181 143.778 140.172 144.26 140.071 144.696L139.918 145.329L139.778 145.962C139.767 146.008 139.766 146.035 139.766 146.044V146.032H139.754L140.035 146.524L140.317 147.028C140.468 147.299 140.645 147.572 140.844 147.837L141.571 148.798C142.03 149.407 142.245 150.125 142.192 150.884L142.145 151.493L142.098 152.091V152.126C142.099 152.129 142.111 152.136 142.121 152.149L142.848 153.11C143.33 153.744 143.525 154.496 143.434 155.278L143.293 156.497C143.263 156.759 143.277 156.986 143.317 157.188L143.422 157.751L143.528 158.302C143.585 158.59 143.671 158.871 143.774 159.145L144.172 160.2C144.299 160.538 144.434 160.884 144.571 161.219L144.781 161.735L144.992 162.262C145.089 162.498 145.215 162.733 145.379 162.966L145.731 163.458L146.071 163.938L146.364 164.466C146.6 165.013 146.653 165.61 146.539 166.2L146.305 167.442C146.293 167.507 146.292 167.541 146.293 167.548V167.559L146.856 168.567C146.987 168.805 147.154 169.045 147.36 169.282L147.758 169.751L148.168 170.208C148.59 170.694 148.891 171.265 149.024 171.907L149.129 172.469L149.246 173.02C149.362 173.585 149.363 174.16 149.27 174.731L149.164 175.352L149.071 175.973C149.026 176.244 149.028 176.474 149.059 176.677L149.223 177.802C149.234 177.874 149.264 177.967 149.364 178.083L149.774 178.54L150.172 179.009C150.726 179.65 150.959 180.448 150.84 181.282L150.746 181.903L150.664 182.512C150.637 182.703 150.653 182.834 150.688 182.934L150.875 183.473L151.063 184.001C151.152 184.251 151.276 184.496 151.426 184.739L151.731 185.231L152.035 185.735C152.361 186.262 152.556 186.84 152.61 187.458L152.621 187.61L152.856 188.137C152.915 188.364 152.928 188.635 152.867 188.934L152.832 189.157L152.785 189.38C152.775 189.428 152.747 189.533 152.703 189.649C152.682 189.706 152.638 189.81 152.563 189.93C152.503 190.026 152.332 190.288 151.989 190.469C151.536 190.705 151.003 190.693 150.571 190.458C150.238 190.277 150.066 190.024 150.008 189.93C149.882 189.728 149.832 189.538 149.821 189.497C149.764 189.286 149.741 189.026 149.727 188.864L149.715 188.841L149.598 188.723L149.188 188.337C149.01 188.168 148.806 188.014 148.567 187.88L148.051 187.598L147.535 187.305C146.967 186.987 146.508 186.534 146.176 185.969L145.883 185.466L145.59 184.973C145.464 184.758 145.313 184.574 145.145 184.411L144.735 184.012L144.336 183.626C144.059 183.358 143.776 183.09 143.504 182.817L142.707 182.02C142.452 181.764 142.196 181.508 141.934 181.259L141.524 180.872L141.125 180.485C140.938 180.307 140.723 180.137 140.481 179.993L139.977 179.7L139.473 179.395C138.958 179.09 138.514 178.694 138.172 178.2L137.844 177.731L137.528 177.262C137.216 176.811 136.987 176.306 136.824 175.774L136.637 175.177L136.449 174.591L135.418 174.075C134.884 173.807 134.414 173.44 134.035 172.973L133.332 172.106C133.138 171.867 132.923 171.638 132.699 171.427L132.289 171.04L131.879 170.641C131.669 170.443 131.439 170.259 131.188 170.091L130.707 169.774L130.227 169.446C129.825 169.177 129.449 168.873 129.114 168.532L128.727 168.134L128.328 167.735C127.887 167.286 127.572 166.743 127.379 166.153L127.192 165.567L126.992 164.981C126.956 164.871 126.925 164.836 126.899 164.817L125.961 164.161C125.608 163.913 125.265 163.643 124.942 163.364L124.508 163.001L124.086 162.626C123.736 162.324 123.407 161.998 123.114 161.641L122.762 161.208L122.399 160.762C122.122 160.425 121.861 160.068 121.625 159.696L121.016 158.735C120.855 158.481 120.682 158.237 120.489 158.02L120.114 157.61L119.739 157.188C119.547 156.974 119.335 156.772 119.106 156.591L118.215 155.887C117.883 155.625 117.559 155.345 117.254 155.055L116.434 154.282C115.975 153.847 115.647 153.312 115.438 152.723L115.239 152.149L115.121 151.844C115.105 151.902 115.097 151.965 115.11 152.055L115.192 152.653L115.262 153.251C115.374 154.067 115.153 154.832 114.653 155.466L114.266 155.958L113.879 156.438C113.799 156.539 113.788 156.606 113.785 156.649L113.75 157.223L113.727 157.798C113.694 158.375 113.544 158.929 113.293 159.45L113.047 159.977L112.789 160.493C112.659 160.763 112.552 161.037 112.473 161.313L112.168 162.391C112.137 162.5 112.118 162.645 112.156 162.837L112.285 163.446L112.403 164.044C112.582 164.943 112.311 165.784 111.711 166.434L111.278 166.915L110.961 167.255L111.09 167.688L111.254 168.298C111.406 168.851 111.469 169.419 111.43 169.985L111.395 170.559L111.36 171.122C111.307 171.876 110.983 172.533 110.504 173.067L110.082 173.548L109.649 174.028C109.548 174.141 109.545 174.197 109.543 174.216L109.426 175.341C109.37 175.896 109.213 176.432 108.969 176.934L108.723 177.45L108.465 177.966V177.977C108.465 177.98 108.461 178.01 108.477 178.071L108.641 178.68L108.805 179.302C108.976 179.963 108.971 180.658 108.735 181.329L108.547 181.856L108.36 182.395C108.268 182.656 108.199 182.92 108.16 183.192L108.078 183.755L108.008 184.317C107.936 184.827 107.794 185.321 107.586 185.794L107.352 186.321L107.117 186.837C106.922 187.28 106.686 187.708 106.403 188.114L105.817 188.934L106.028 189.473L106.274 190.106C106.557 190.828 106.614 191.64 106.262 192.427L106.028 192.954L105.793 193.469C105.595 193.913 105.354 194.341 105.067 194.747L104.364 195.731C104.286 195.84 104.261 195.927 104.258 196.001L104.235 196.575L104.211 197.137C104.193 197.568 104.154 198.004 104.094 198.427L104.024 198.977L103.942 199.54C103.903 199.809 103.889 200.09 103.906 200.384L103.977 201.555C103.995 201.855 103.982 202.27 103.813 202.68C103.616 203.157 103.216 203.585 102.617 203.759L101.985 203.946C101.751 204.013 101.343 204.085 100.895 203.911C100.402 203.719 100.119 203.335 99.9807 203.009C99.7632 202.496 99.8401 201.972 99.8752 201.755L99.969 201.157L100.074 200.559C100.098 200.415 100.071 200.32 100.039 200.243L99.8284 199.716L99.6057 199.188C99.3985 198.688 99.2799 198.158 99.2424 197.618L99.1956 197.055L99.1604 196.481C99.1475 196.304 99.1039 196.135 99.0198 195.966L98.5042 194.934C98.3623 194.65 98.1893 194.36 98.0002 194.079L97.6721 193.587L97.3323 193.083C96.971 192.545 96.7566 191.933 96.7112 191.278L96.6643 190.716L96.6292 190.141C96.6049 189.793 96.5678 189.441 96.5237 189.098L96.4534 188.548L96.3831 187.985C96.3593 187.8 96.2955 187.619 96.1956 187.434L95.926 186.919L95.6448 186.403C95.3509 185.859 95.1943 185.265 95.176 184.645L95.1526 184.071L95.1409 183.497C95.1331 183.247 95.0927 183.01 95.0237 182.782L94.6956 181.704C94.5707 181.293 94.4705 180.872 94.3909 180.45L94.1799 179.348C94.124 179.052 94.0436 178.757 93.9456 178.469L93.7581 177.93L93.5823 177.391C93.444 176.986 93.3256 176.577 93.2307 176.161L92.9729 175.059C92.9017 174.748 92.8194 174.438 92.7151 174.134L92.5276 173.594L92.3518 173.067C92.1849 172.58 92.0867 172.071 92.0588 171.555L92.0237 170.981L92.0002 170.407C91.9897 170.212 91.9404 170.025 91.8596 169.844L91.6252 169.329L91.3909 168.802C91.1624 168.292 91.0292 167.754 90.9924 167.196L90.9573 166.634L90.9104 166.059C90.8999 165.901 90.8661 165.747 90.7815 165.591L90.5002 165.075L90.219 164.571C89.7943 163.787 89.8089 162.937 90.0901 162.18L90.3245 161.548L90.5588 160.927C90.6254 160.747 90.6076 160.675 90.6057 160.669L90.4534 160.13L90.301 159.579C90.2398 159.359 90.1439 159.134 90.0081 158.911L89.3987 157.903C89.0475 157.327 88.8685 156.684 88.8831 156.005L88.8948 155.419L88.9065 154.844C88.9128 154.55 88.8948 154.262 88.8479 153.989L88.6604 152.887C88.6384 152.759 88.5763 152.614 88.4612 152.454L88.1096 151.962L87.9221 151.704L87.7698 151.927L87.4417 152.395C87.2809 152.623 87.1335 152.879 87.0081 153.157L86.5159 154.235C86.3002 154.714 86.0282 155.161 85.6956 155.559L85.3323 155.993L84.9807 156.427C84.659 156.812 84.2875 157.151 83.8792 157.446L83.4104 157.774L82.9534 158.114C82.7973 158.227 82.67 158.363 82.5667 158.524L82.2502 159.005L81.9456 159.485C81.5612 160.087 81.017 160.521 80.3752 160.786L79.801 161.02L79.2385 161.255H79.2151L78.9924 161.805L78.7581 162.344C78.5679 162.782 78.3443 163.206 78.0901 163.598L77.7737 164.079L77.469 164.559C77.1615 165.033 76.7659 165.434 76.3088 165.766L75.8518 166.106L75.3831 166.446C75.0793 166.667 74.7703 166.891 74.469 167.114L73.5549 167.794C73.2909 167.989 73.0425 168.197 72.8049 168.415L72.3831 168.79L71.9729 169.177C71.7545 169.376 71.5479 169.589 71.3635 169.821L70.6604 170.712C70.4083 171.029 70.146 171.337 69.8752 171.637L69.4885 172.059L69.1135 172.469C68.8174 172.798 68.5028 173.109 68.1643 173.395L67.7307 173.759L67.2971 174.134C66.9883 174.395 66.673 174.65 66.3479 174.895L65.8909 175.235L65.4807 175.528C65.4771 175.543 65.4842 175.569 65.4807 175.598L65.3987 176.29L65.3049 176.981C65.2521 177.415 65.1115 177.876 64.801 178.282C64.4839 178.696 64.0616 178.963 63.6174 179.114L63.0081 179.325L62.4104 179.524C62.2813 179.568 62.2526 179.609 62.2463 179.618L61.9299 180.098L61.6135 180.567C61.429 180.843 61.2608 181.135 61.0979 181.434L60.8167 181.95L60.5354 182.454C60.2921 182.902 60.0017 183.315 59.6565 183.684L58.8831 184.505C58.5636 184.846 58.2189 185.162 57.8401 185.442L57.3831 185.782L56.9143 186.122C56.7232 186.263 56.5613 186.43 56.4221 186.614L56.0823 187.059L55.7424 187.516C55.3024 188.097 54.7051 188.478 54.0432 188.688L53.4221 188.876L52.8127 189.075C52.7184 189.105 52.6655 189.134 52.6487 189.145L52.3674 189.532L52.0745 189.942C52.0112 190.03 51.8877 190.191 51.7346 190.329C51.6666 190.39 51.4868 190.544 51.219 190.645C50.9043 190.763 50.2604 190.862 49.6956 190.387C49.2621 190.021 49.1862 189.548 49.1682 189.427C49.142 189.249 49.1499 189.095 49.1565 189.016C49.1705 188.853 49.2107 188.697 49.2385 188.583L49.4963 187.481C49.6412 186.885 49.9227 186.349 50.3049 185.876L50.6917 185.407L51.0667 184.927C51.2862 184.655 51.4887 184.384 51.6643 184.106L51.9807 183.614L52.2854 183.122C52.3261 183.058 52.3478 182.996 52.344 182.899L52.2971 181.704C52.2797 181.292 52.2665 180.882 52.262 180.473L52.2502 179.887V179.29C52.2415 178.377 52.6667 177.626 53.3049 177.098L53.8206 176.677L54.1956 176.36L54.137 175.973L54.0315 175.364C53.9375 174.809 53.9222 174.249 54.0081 173.7L54.1018 173.137L54.1838 172.575C54.2703 172.026 54.4522 171.502 54.7229 171.016L55.2854 170.009C55.5146 169.598 55.7817 169.201 56.0823 168.825L56.4573 168.356L56.844 167.876C56.9149 167.786 56.933 167.718 56.9377 167.653L56.9846 167.079L57.0198 166.505C57.0493 166.101 57.0908 165.696 57.137 165.298L57.1956 164.735L57.2659 164.161C57.3313 163.601 57.4954 163.066 57.7581 162.567L58.0276 162.052L58.2971 161.548C58.3055 161.532 58.3281 161.497 58.3088 161.384L58.2034 160.762L58.0862 160.141C57.9349 159.27 58.185 158.437 58.7893 157.786L59.2112 157.329L59.6331 156.86V156.848L59.6096 156.298L59.5862 155.7C59.5605 155.085 59.6732 154.485 59.926 153.919L60.1604 153.403L60.3831 152.876C60.5257 152.557 60.6688 152.239 60.7932 151.915L61.1917 150.86C61.3015 150.574 61.3907 150.279 61.4612 149.981L61.719 148.88C61.8084 148.5 61.912 148.119 62.012 147.743L62.1526 147.204L62.2932 146.653C62.4096 146.216 62.5657 145.791 62.7502 145.376L62.9846 144.848L63.2073 144.333C63.3606 143.988 63.5234 143.646 63.676 143.302L63.8987 142.786L64.1331 142.27C64.2507 142.005 64.3445 141.728 64.4143 141.45L64.5432 140.899L64.6838 140.348C64.7199 140.204 64.7525 140.059 64.7893 139.915C64.2954 140.071 63.7776 140.103 63.2659 140.009L62.6448 139.903L62.0237 139.786C61.737 139.733 61.4851 139.717 61.262 139.739L60.1135 139.856C59.8045 139.888 59.5037 139.947 59.2112 140.02L58.6604 140.149L58.1213 140.29C57.8991 140.345 57.6782 140.435 57.4651 140.559L56.9729 140.852L56.469 141.145C56.135 141.341 55.796 141.527 55.4612 141.719L54.4534 142.305C53.815 142.671 53.1103 142.786 52.4026 142.692L51.7815 142.61L51.1721 142.528V142.516L50.7151 142.88L50.2346 143.243C49.9089 143.49 49.5783 143.73 49.2502 143.969L48.2893 144.673C47.7904 145.037 47.2277 145.284 46.6135 145.387L45.4885 145.575C45.0346 145.651 44.5736 145.691 44.1057 145.692H42.9338C42.8905 145.692 42.8535 145.703 42.7932 145.751L42.3245 146.126L41.844 146.501C41.2442 146.976 40.5267 147.211 39.7581 147.169L38.5627 147.098C38.1784 147.077 37.7955 147.064 37.4143 147.052L36.8167 147.028L36.3127 147.016L35.9026 147.473L35.469 147.954C35.1675 148.285 34.7707 148.574 34.2854 148.716C33.8012 148.857 33.3209 148.829 32.8909 148.716L32.2581 148.552L31.7307 148.399L31.4026 148.704L30.9338 149.102C30.5598 149.423 30.1649 149.705 29.7502 149.946L28.7424 150.532C28.1427 150.879 27.4789 151.022 26.7971 150.977L26.1877 150.93L25.5901 150.895C25.5569 150.893 25.5388 150.894 25.5315 150.895C25.5276 150.896 25.51 150.901 25.4846 150.919L25.0042 151.27L24.512 151.61C23.8889 152.056 23.1684 152.255 22.4143 152.184L21.8049 152.126L21.2073 152.067C21.0125 152.049 20.8612 152.068 20.7385 152.114L19.6838 152.512C19.3251 152.647 18.9662 152.782 18.6057 152.911L18.0784 153.098L17.5393 153.286C17.0733 153.452 16.5922 153.562 16.0979 153.614L15.5237 153.673L14.9612 153.731C14.8569 153.742 14.7481 153.75 14.6565 153.755C14.6124 153.757 14.5536 153.767 14.4924 153.766C14.4567 153.766 14.3003 153.758 14.1292 153.719C14.0602 153.704 13.8111 153.643 13.5549 153.45C13.4055 153.337 13.1814 153.137 13.051 152.805C12.9114 152.448 12.9346 152.088 13.0276 151.798C13.1756 151.339 13.492 151.094 13.5549 151.048C13.6622 150.968 13.7684 150.917 13.8127 150.895C13.9663 150.82 14.1235 150.77 14.176 150.755L14.5393 150.649L14.7502 150.579C14.7582 150.568 14.7754 150.558 14.7854 150.544L15.4417 149.606C15.7724 149.133 16.1866 148.735 16.6721 148.423L17.1526 148.118L17.6331 147.802C17.97 147.585 18.317 147.374 18.6643 147.169L19.1565 146.876L19.6604 146.583C19.8677 146.46 20.0444 146.314 20.1995 146.149L20.9729 145.329C21.115 145.177 21.2497 144.988 21.3596 144.755L21.8752 143.653C22.1622 143.046 22.5959 142.538 23.176 142.177L24.1604 141.567C24.3662 141.439 24.5439 141.282 24.6995 141.11L25.0745 140.7L25.4495 140.278C25.7758 139.917 26.1412 139.588 26.5393 139.305L27.0081 138.977L27.4651 138.649C27.6928 138.488 27.9097 138.31 28.0979 138.11L28.4729 137.7L28.8596 137.29C29.2478 136.877 29.7085 136.541 30.219 136.294L30.7463 136.048L31.2737 135.79L31.2854 135.778H31.2971C31.3009 135.772 31.2999 135.753 31.3088 135.731L31.5432 135.169L31.7893 134.594C32.0626 133.932 32.5106 133.372 33.1487 133.001L33.6526 132.719L34.1448 132.427C34.4051 132.275 34.6499 132.107 34.8713 131.923L35.7385 131.196C35.7617 131.177 35.8276 131.126 35.8792 130.95L36.0549 130.317L36.2424 129.684L36.512 129.052C36.633 128.849 36.7916 128.659 36.9807 128.489C37.3577 128.15 37.7981 127.963 38.2346 127.88L38.8909 127.751L39.3948 127.657L39.5471 127.27L39.7815 126.696C40.0223 126.101 40.3965 125.573 40.9065 125.161L41.3401 124.798L41.7854 124.446C42.1266 124.171 42.4868 123.917 42.8635 123.684L43.3557 123.38L43.8362 123.075C44.0634 122.934 44.2656 122.775 44.4456 122.594L45.2424 121.798C45.442 121.597 45.6255 121.373 45.7932 121.13L46.1213 120.661L46.4495 120.18C46.816 119.65 47.303 119.233 47.8792 118.95L48.9338 118.434C49.2216 118.293 49.4927 118.137 49.7424 117.966L50.2112 117.649L50.6799 117.321C50.89 117.176 51.077 117.006 51.2424 116.817L51.9924 115.973V115.962C51.7526 115.99 51.5162 116.048 51.2776 116.055L50.6917 116.067L50.1174 116.091C49.4372 116.112 48.7878 115.935 48.2073 115.587L47.1995 114.977C46.9659 114.837 46.7285 114.742 46.4963 114.673L45.4182 114.344C45.2087 114.282 44.9767 114.247 44.7385 114.251L43.5901 114.274C43.0122 114.283 42.4409 114.181 41.9026 113.969L41.3752 113.759L40.8479 113.559C40.5019 113.423 40.152 113.292 39.8049 113.161L39.2776 112.95L38.7385 112.751C38.3426 112.601 37.9512 112.435 37.5667 112.247L37.051 111.989L36.5706 111.766L36.5588 111.778L35.2932 112.247C34.4927 112.543 33.6066 112.51 32.8206 112.001L32.3167 111.684L31.8245 111.356C31.5543 111.181 31.2769 111.032 31.0042 110.911L29.9495 110.442C29.9071 110.424 29.8474 110.406 29.7268 110.43L29.1174 110.559L28.5198 110.677C27.8947 110.802 27.2531 110.788 26.6331 110.594L26.094 110.419L25.5549 110.255C25.072 110.104 24.609 109.89 24.1721 109.622L23.6682 109.305L23.1643 109.001C22.8892 108.832 22.6108 108.686 22.3323 108.567L21.2776 108.122C21.1062 108.049 20.9302 108.009 20.7385 108.005L19.5901 107.981C19.3478 107.977 19.076 108.003 18.7815 108.075L17.5627 108.38C16.6101 108.612 15.7125 108.318 15.0549 107.653L14.5862 107.184L14.1526 106.739L13.6838 106.798L13.0979 106.856C12.3168 106.936 11.5824 106.72 10.9651 106.259L10.4729 105.884L9.98071 105.52C9.81096 105.393 9.65852 105.326 9.52368 105.298L8.42212 105.063C8.35217 105.049 8.23042 105.043 8.02368 105.11L7.40259 105.309L6.76978 105.509C5.92872 105.78 5.04476 105.681 4.29712 105.122L3.80493 104.759L3.31274 104.384C3.20761 104.305 3.13663 104.292 3.07837 104.29L2.50415 104.266L1.94165 104.231C1.72497 104.221 1.33918 104.193 0.980713 104.032C0.794114 103.948 0.430535 103.752 0.195557 103.329C-0.0765202 102.836 -0.0257739 102.326 0.113525 101.969L0.195557 101.77L0.265869 101.571L0.570557 101.067C0.930971 100.666 1.41452 100.551 1.63696 100.516C1.97389 100.463 2.30954 100.49 2.56274 100.528L3.75806 100.716L3.74634 100.727C3.74634 100.727 3.75892 100.723 3.76978 100.716L4.75415 100.012C5.26976 99.648 5.85357 99.4022 6.48853 99.321L7.61353 99.1804C8.00258 99.1308 8.39366 99.0889 8.7854 99.0515L9.3479 98.9929L9.9104 98.946C10.2663 98.9121 10.6244 98.8649 10.9768 98.8171L11.5393 98.7468L12.1018 98.6648C12.3089 98.6364 12.5098 98.5764 12.7112 98.4773L13.2385 98.2195L13.7542 97.9617C14.0763 97.8025 14.3961 97.634 14.7151 97.4578L15.7463 96.8953L16.2854 96.6609C16.8324 96.4878 17.4042 96.4849 17.9612 96.6257L18.5823 96.7781L18.969 96.8835L19.3088 96.5554L19.7776 96.0867L20.2581 95.6882C20.7727 95.3465 21.3868 95.1695 22.0627 95.2429L22.6604 95.3132L23.2463 95.3718C23.3673 95.3851 23.4589 95.3764 23.5393 95.3367L24.5706 94.821C25.0305 94.5942 25.5117 94.4278 26.012 94.3289L27.1135 94.1179C27.6967 94.0027 28.2908 94.0098 28.8713 94.1296L30.0901 94.3875C30.2624 94.4221 30.3787 94.4037 30.4651 94.3757L31.5432 94.0242C31.9817 93.8828 32.4345 93.7837 32.8909 93.7195L33.4417 93.6375L34.0042 93.5554C34.1951 93.5286 34.3879 93.4707 34.5784 93.3679L35.0823 93.0984L35.5979 92.8171C36.2507 92.465 36.9684 92.3652 37.6838 92.489L38.2815 92.5945L38.8674 92.6882L39.3596 92.3484L39.8518 91.9968C40.2549 91.7125 40.6784 91.4686 41.1174 91.2703L42.1721 90.8015C42.6819 90.572 43.2198 90.4399 43.7776 90.4031L44.3518 90.3679L44.9143 90.321C45.1908 90.3028 45.4632 90.2652 45.7229 90.1921L46.801 89.8875C47.2345 89.7655 47.6773 89.6732 48.1252 89.6179L49.2502 89.4773C49.6097 89.4331 49.9711 89.39 50.3284 89.3367L50.8909 89.2429L51.4534 89.1609C51.6858 89.1263 51.9211 89.1175 52.1565 89.1023C52.0415 88.8921 51.952 88.7447 51.8635 88.657L51.0667 87.8601C50.8337 87.6297 50.5828 87.4117 50.3284 87.2039L49.8948 86.8523L49.4612 86.489C49.332 86.3835 49.1565 86.2937 48.9221 86.2195L48.3245 86.032L47.7385 85.8445C46.9641 85.5993 46.3416 85.0801 45.9807 84.3328L45.7229 83.782L45.4534 83.2429C45.3195 82.9653 45.1741 82.7139 45.0081 82.4929L44.6565 82.0359L44.3401 81.6023C44.3261 81.5971 44.2981 81.5979 44.2581 81.5906L42.9221 81.3562C42.2367 81.2362 41.5811 80.945 41.0588 80.4187L40.262 79.6218C40.0242 79.3824 39.7784 79.1518 39.5237 78.9304L39.1018 78.5554L38.6799 78.1921C38.3259 77.8845 37.9988 77.5427 37.7073 77.1726L37.3557 76.7156L37.0042 76.2703C36.8155 76.0305 36.6126 75.8072 36.3948 75.6023L35.9846 75.2156L35.5745 74.8406C35.3484 74.6278 35.1025 74.4274 34.8479 74.2429L34.3909 73.9031L33.9338 73.575C33.4333 73.2122 33.0373 72.7463 32.7502 72.2039L32.1877 71.1492C32.1329 71.0461 32.0786 70.9825 32.0002 70.9382L30.9924 70.3757C30.5034 70.0992 30.0752 69.7401 29.7151 69.3093L28.9885 68.4421C28.7065 68.1043 28.4455 67.7385 28.2034 67.364L27.887 66.8835L27.5706 66.3914C27.5522 66.3634 27.5203 66.3413 27.4299 66.3093L26.8557 66.0984L26.2815 65.8992C25.5512 65.641 24.9597 65.1438 24.594 64.446L24.3127 63.9187L24.0432 63.3914C23.9525 63.2178 23.8457 63.0877 23.7268 62.9929L22.8362 62.2898C22.5922 62.0972 22.326 61.9156 22.051 61.7507L21.0667 61.1648C20.6118 60.8919 20.2009 60.551 19.8479 60.157L19.4729 59.7351L19.0979 59.325C18.8618 59.0614 18.6181 58.8033 18.3713 58.5515L17.9846 58.1414L17.5862 57.7429C17.2116 57.3607 16.906 56.9228 16.6604 56.4421L16.3792 55.9031L16.1096 55.3875L15.5354 55.2117L14.9377 55.0242C14.5991 54.9164 14.1831 54.7187 13.8479 54.3562C13.478 53.9538 13.3027 53.4417 13.3206 52.9148L13.3323 52.4812L13.344 52.0359C13.3501 51.8655 13.387 51.5331 13.5784 51.1921C13.8243 50.7555 14.2848 50.4096 14.8792 50.3718C15.3393 50.3431 15.6936 50.5065 15.8518 50.5945L16.3088 50.9343L16.7776 51.3445L17.2463 51.7429C17.388 51.8672 17.5072 51.9301 17.6096 51.9539L18.1487 52.071L18.6995 52.2C18.8982 52.246 19.1247 52.2691 19.3792 52.2468L19.9885 52.1882L20.5979 52.1414C21.1799 52.0899 21.7618 52.142 22.3206 52.3171L22.8479 52.4812L23.387 52.6453C23.857 52.7926 24.3069 53.0019 24.7346 53.2546L25.2385 53.5476L25.7307 53.8406C25.8552 53.9142 25.9858 53.9488 26.1292 53.9578L26.7151 53.9929L27.2893 54.0281C27.999 54.0686 28.6422 54.3308 29.1877 54.7664L29.6682 55.1414L30.137 55.5281C30.1464 55.5356 30.1559 55.537 30.1604 55.5398C30.162 55.54 30.1706 55.5404 30.1838 55.5398L31.3792 55.4695C32.131 55.4264 32.839 55.6503 33.4417 56.1023L33.9221 56.4539L34.4026 56.8171C34.6506 57.0032 34.8997 57.161 35.1526 57.2859L35.6682 57.532L36.1487 57.7664C36.1644 57.7648 36.1956 57.7687 36.2424 57.7546L36.887 57.5554L37.5315 57.3679C38.0723 57.2054 38.652 57.1668 39.219 57.3093L39.7932 57.5085L40.2971 57.7664L40.8127 58.0125C41.2326 58.2188 41.633 58.4713 42.0198 58.7507L42.5002 59.0906L42.9807 59.4421C43.2034 59.603 43.4363 59.7189 43.6604 59.8054L44.176 60.0164L44.7034 60.2156C44.8323 60.2653 44.9891 60.2888 45.1838 60.2742L45.7815 60.2273L46.3909 60.1804C46.9036 60.1422 47.416 60.1664 47.9143 60.2507L48.4651 60.3445L49.0276 60.4382C49.4607 60.5115 49.8863 60.6166 50.3049 60.7429L51.3831 61.071C51.9526 61.2431 52.4643 61.5338 52.9182 61.9148L53.387 62.3015L53.8206 62.6648L54.4065 62.6062L55.0159 62.5359C55.7713 62.4467 56.5117 62.62 57.1487 63.0632L57.6292 63.3914L58.1213 63.7312C58.3507 63.8906 58.5796 64.0151 58.8127 64.1062L59.3401 64.3171L59.8674 64.5164C59.9612 64.5529 60.0838 64.5754 60.2659 64.5515L60.8752 64.4695L61.4846 64.3992L62.094 64.3757C62.4881 64.4033 62.8687 64.5067 63.219 64.6921L63.7229 65.032L64.1917 65.4187L64.5081 65.6765L64.4377 65.2429C64.4144 65.0933 64.3625 64.9477 64.262 64.7976L63.9338 64.3054L63.6057 63.825C63.2953 63.3625 63.0618 62.852 62.926 62.3132L62.7971 61.7742L62.6565 61.2234C62.5623 60.8496 62.4733 60.4745 62.387 60.0984L62.1292 58.9968C62.0564 58.6802 61.9745 58.3665 61.8713 58.0593L61.6838 57.5203L61.5081 56.9929C61.3314 56.4672 61.2518 55.9201 61.262 55.364L61.2737 54.7664L61.2854 54.1804C61.2904 53.9149 61.2607 53.6688 61.2034 53.4421L61.0627 52.8914L60.9221 52.3523C60.8097 51.91 60.741 51.4518 60.6995 50.9929L60.6409 50.4187L60.594 49.8562C60.5898 49.8102 60.5779 49.7473 60.5002 49.657L60.0901 49.1882L59.6917 48.7312C59.1983 48.16 58.9262 47.453 58.9299 46.6804V45.5085C58.9309 45.3203 58.8987 45.1608 58.8362 45.0164L58.6018 44.489L58.3792 43.9734C58.2697 43.7242 58.1283 43.479 57.9573 43.2351L57.6174 42.7429L57.2776 42.2625C56.9655 41.8186 56.722 41.3362 56.5627 40.821L56.2346 39.7429L55.7424 38.0906L55.5901 37.5515C55.4363 37.0136 55.3881 36.4596 55.426 35.8992L55.4612 35.3015L55.5081 34.7039C55.5254 34.4481 55.4998 34.2165 55.4495 34.0125L55.3088 33.4617L55.1799 32.9226C55.1093 32.6362 55.0151 32.3525 54.8987 32.0789L54.676 31.5632L54.4534 31.0359C54.2953 30.664 54.144 30.2899 54.0081 29.9109L53.8206 29.3718L53.6331 28.8445C53.4519 28.3389 53.3571 27.8131 53.3401 27.2742L53.3167 26.6882L53.3049 26.114C53.3002 25.9626 53.2565 25.827 53.1877 25.7039L52.9065 25.2L52.6252 24.7078C52.4134 24.328 52.2322 23.9312 52.0627 23.5359L51.6174 22.5046C51.4414 22.0941 51.2888 21.6688 51.1721 21.239L51.0198 20.7L50.8792 20.1492C50.8228 19.9424 50.7275 19.7423 50.5979 19.5398L49.9651 18.5554C49.5577 17.921 49.4093 17.1957 49.5081 16.4578L49.6721 15.2625L49.8362 14.6296C49.9292 14.4186 50.1957 13.9287 50.8088 13.7156C51.4686 13.4869 52.0103 13.7563 52.2502 13.9148L52.7659 14.3953L53.1174 14.8406L53.4573 15.2859C53.7214 15.624 53.9776 15.9733 54.2073 16.3406L54.5002 16.8328L54.8049 17.3132C54.8549 17.3932 54.9286 17.4625 55.051 17.5242L55.5901 17.7937L56.1174 18.0632C56.7558 18.384 57.2586 18.884 57.5823 19.5281L57.8518 20.0554L58.1096 20.571C58.1378 20.6272 58.1742 20.6615 58.2502 20.7L58.7776 20.9695L59.3167 21.239C59.7628 21.4647 60.1777 21.7384 60.5588 22.0476L61.0042 22.3992L61.4377 22.7625C62.0698 23.2751 62.4068 23.9735 62.5276 24.7078L62.6331 25.3757L62.7034 25.7742L63.0549 25.8796L63.676 26.0671C64.3499 26.265 64.9703 26.6379 65.4221 27.2273L65.762 27.6726L66.1018 28.1296C66.4392 28.5703 66.6959 29.0637 66.8752 29.5945L67.2737 30.7664C67.3524 30.9976 67.4555 31.1698 67.5667 31.3054L67.9299 31.739L68.2815 32.1843C68.3892 32.3146 68.5311 32.425 68.7151 32.5242L69.2424 32.8054L69.7581 33.0867C70.3085 33.3826 70.7736 33.7974 71.1292 34.3171L71.4573 34.7859L71.7737 35.2546C71.8451 35.359 71.9442 35.4466 72.0901 35.5242L72.6174 35.8054L73.1331 36.0867C73.5538 36.3106 73.9582 36.5629 74.3284 36.8484L74.7737 37.2L75.2307 37.5398C75.7473 37.9383 76.1288 38.4576 76.3792 39.0515L76.8479 40.1531C76.9505 40.3966 77.0705 40.6018 77.2112 40.7742L77.5745 41.2078L77.926 41.6531C78.1527 41.9301 78.3821 42.2046 78.6174 42.4734L79.3674 43.3171C79.6647 43.6569 79.9313 44.0232 80.176 44.407L80.4807 44.8875L80.7854 45.3562L80.8792 45.4031L81.512 45.5789L82.1331 45.7664C82.7803 45.9534 83.3255 46.3347 83.6799 46.8914L83.9729 47.5007L84.1604 48.0867L84.3596 48.6843C84.4444 48.9388 84.5546 49.1404 84.676 49.3054L85.0042 49.7625L85.344 50.2195C85.5241 50.4643 85.7181 50.6979 85.9299 50.9109L86.7268 51.7078C86.8066 51.7874 86.9374 51.8709 87.1487 51.9421L87.887 52.1882C87.904 52.0623 87.9429 51.9308 87.9338 51.7898L87.8635 50.6179C87.8196 49.9299 87.9737 49.2681 88.3206 48.6726L88.6135 48.1687L88.9065 47.6531C89.0159 47.4649 89.0866 47.2852 89.1174 47.1023L89.2112 46.5398L89.3049 45.989C89.38 45.5401 89.488 45.0968 89.6331 44.6648L89.8088 44.1257L89.9963 43.5984C90.1283 43.2056 90.2679 42.8111 90.4299 42.4265L90.8752 41.3718C90.9551 41.1809 91.0042 40.9815 91.0159 40.7742L91.051 40.2117L91.0745 39.6375C91.0938 39.293 91.1014 38.9456 91.0979 38.5945V38.0085L91.0862 37.4343C91.0805 36.878 91.1714 36.3298 91.3557 35.8054L91.5432 35.2664L91.7307 34.739C91.8025 34.5348 91.8423 34.3215 91.8479 34.0945L91.8713 32.946C91.8879 32.2428 92.1256 31.5946 92.5276 31.0359L92.8909 30.532L93.2424 30.0398C93.3285 29.9199 93.364 29.8297 93.3713 29.7468L93.4065 29.1726L93.4534 28.6101C93.504 27.9715 93.7185 27.3731 94.0627 26.8406L94.3909 26.3367L94.7073 25.8328C94.8006 25.6876 94.8461 25.5609 94.8596 25.4343L94.9768 24.3093C95.0062 24.0259 95.0118 23.725 94.9885 23.4187L94.8948 22.2468C94.8346 21.4536 95.0814 20.7165 95.5627 20.114L95.9612 19.6335L96.3479 19.1414C96.4171 19.0535 96.4286 19.0075 96.4299 18.9773L96.4417 18.4031L96.4651 17.8289C96.4749 17.5294 96.4588 17.2131 96.4182 16.8914L96.3479 16.3054L96.2659 15.7078C96.1838 15.0567 96.2695 14.4069 96.5354 13.7976L96.7581 13.2703L96.9924 12.7546C97.1581 12.375 97.3395 11.99 97.5315 11.6179L97.801 11.1023L98.0588 10.5867C98.1043 10.4978 98.127 10.4111 98.1174 10.2937L98.0237 9.12183C97.9581 8.31517 98.2071 7.56883 98.7034 6.96558L99.1018 6.48511L99.512 6.00464C99.6471 5.84014 99.6964 5.69724 99.7229 5.58276L99.8518 5.03198L99.9807 4.49292C99.9989 4.41442 100.005 4.28503 99.9456 4.08276L99.7698 3.46167L99.5823 2.84058C99.5089 2.59098 99.4351 2.27139 99.4299 1.94995C99.4267 1.73817 99.4438 0.856506 100.285 0.391357L100.637 0.203857L101.281 0.00463867ZM101.422 8.39526L101.024 8.87573C101.01 8.89265 101.002 8.90797 101 8.91089L101.012 8.89917L101.059 9.46167L101.106 10.0476C101.16 10.7144 101.039 11.3717 100.731 11.9695L100.192 13.0007C100.03 13.3143 99.885 13.6323 99.7463 13.95L99.512 14.4773L99.2893 14.9929C99.2502 15.0826 99.2245 15.1903 99.2424 15.3328L99.3245 15.9304L99.3948 16.5164C99.4541 16.9872 99.4802 17.4586 99.4651 17.9226L99.4182 19.071C99.3941 19.8036 99.133 20.4629 98.6917 21.0164L98.3049 21.5085L97.9065 21.989L97.8948 22.0125L97.9299 22.6101L97.9768 23.196C98.0128 23.6729 98.0136 24.1463 97.9651 24.614L97.8479 25.739C97.7833 26.3619 97.5634 26.9402 97.2268 27.4617L96.9104 27.9656L96.5823 28.4695C96.4939 28.6061 96.451 28.7269 96.4417 28.8445L96.4065 29.407L96.3596 29.9812C96.306 30.6506 96.0649 31.2632 95.6799 31.7976L95.3167 32.2898L94.9651 32.782C94.8932 32.8816 94.8728 32.9552 94.8713 33.0164L94.8479 34.1648C94.835 34.7021 94.7446 35.2289 94.5667 35.7351L94.3792 36.2625L94.1917 36.8015C94.126 36.9883 94.0842 37.1843 94.0862 37.3992L94.0979 37.9851V38.5593C94.1022 38.978 94.0977 39.3996 94.0745 39.8132L94.0393 40.3757L94.0159 40.95C93.9847 41.5007 93.855 42.0354 93.6409 42.5437L93.1956 43.5984C93.0633 43.9129 92.9395 44.2284 92.8323 44.5476L92.4807 45.6257C92.3865 45.9067 92.3068 46.1902 92.2581 46.4812L92.1643 47.0437L92.0706 47.5945C91.9776 48.1502 91.7914 48.6773 91.5081 49.1648L91.2034 49.6804L90.9104 50.1843C90.8629 50.266 90.8458 50.3374 90.8518 50.4304L90.887 51.0164L90.9338 51.6023C90.9689 52.1498 90.9139 52.6921 90.7698 53.2195L90.6174 53.7703L90.4651 54.3093C90.4138 54.4964 90.3326 54.7929 90.1838 55.0476C90.1397 55.1233 89.9033 55.5298 89.3987 55.739C89.0809 55.8699 88.6932 55.9075 88.3088 55.7742C88.1357 55.7133 87.9879 55.6262 87.8752 55.5398L87.6057 55.2703C87.5494 55.2488 87.4788 55.2165 87.3948 55.1882L86.7971 54.989L86.1877 54.7898C85.5945 54.5899 85.0548 54.2682 84.6057 53.8171L83.8088 53.0203C83.4923 52.702 83.1969 52.3634 82.9299 52.0007L82.5901 51.5437L82.262 51.0867C81.9366 50.6443 81.6868 50.1494 81.512 49.6218L81.3127 49.0359L81.1721 48.6023L80.6799 48.4617L80.0471 48.2859C79.3318 48.0792 78.6953 47.6572 78.2659 46.9851L77.9612 46.5046L77.6448 46.0242C77.4801 45.766 77.3015 45.5214 77.1057 45.2976L76.7307 44.8757L76.3674 44.4421C76.1103 44.1484 75.8533 43.8541 75.6057 43.5515L75.2424 43.1179L74.8909 42.6726C74.5582 42.2656 74.2892 41.8146 74.0823 41.325L73.8479 40.7625L73.6135 40.2117C73.5536 40.0706 73.4752 39.9838 73.3909 39.9187L72.9456 39.5671L72.4885 39.2273C72.2572 39.049 72.0053 38.8833 71.7268 38.7351L71.1995 38.4539L70.6838 38.1726C70.1318 37.8788 69.6576 37.4736 69.301 36.9539L68.9729 36.4734L68.6565 36.0046C68.584 35.8995 68.4846 35.813 68.3401 35.7351L67.8127 35.4539L67.2971 35.1726C66.786 34.8978 66.3304 34.5315 65.9612 34.0828L65.6096 33.6492L65.2463 33.2156C64.8828 32.7734 64.6103 32.2713 64.426 31.7273L64.2385 31.1414L64.0393 30.5554C63.9552 30.3064 63.8432 30.103 63.7229 29.946L63.3831 29.5007L63.0315 29.0554C63.0248 29.0467 62.9936 28.9973 62.8323 28.95L62.2112 28.7625L61.5784 28.575C61.1393 28.4455 60.7102 28.2054 60.3713 27.8132C60.036 27.4248 59.8582 26.974 59.7854 26.5359L59.6799 25.8679L59.5627 25.2C59.5487 25.1144 59.5296 25.0748 59.5276 25.071L59.1057 24.7312L58.6721 24.3796C58.4653 24.2119 58.2234 24.0572 57.9573 23.9226L57.4299 23.6531L56.8909 23.3835C56.2551 23.0616 55.7605 22.561 55.4377 21.9187L55.1682 21.3914L54.9104 20.8757C54.883 20.8211 54.8453 20.7848 54.7698 20.7468L54.2424 20.4773L54.0432 20.3718L54.0667 20.4539C54.1464 20.7476 54.2502 21.0386 54.3713 21.321L54.8167 22.3523C54.9445 22.6505 55.0881 22.9523 55.2502 23.2429L55.8127 24.2507C56.1166 24.7968 56.2853 25.3968 56.3049 26.0203L56.3167 26.5945L56.3401 27.1804C56.3477 27.417 56.3853 27.636 56.4573 27.8367L56.8323 28.8914C56.9492 29.2174 57.0827 29.5434 57.219 29.864L57.4417 30.3796L57.6643 30.907C57.8421 31.3257 57.989 31.7554 58.0979 32.196L58.2268 32.7468L58.3674 33.2976C58.496 33.821 58.5331 34.3605 58.4963 34.9031L58.4612 35.5007L58.4143 36.0984C58.3981 36.3371 58.4207 36.5489 58.4729 36.7312L58.6252 37.2703L58.7893 37.8093C58.8897 38.1598 58.9865 38.5157 59.094 38.864L59.2581 39.3914L59.4338 39.9304C59.4957 40.1308 59.5853 40.3385 59.7268 40.5398L60.4065 41.5007C60.6879 41.901 60.9278 42.326 61.1213 42.7664L61.3557 43.282L61.5784 43.8093C61.8168 44.3535 61.9326 44.928 61.9299 45.5203V46.7273C61.9342 46.7343 61.9496 46.7445 61.9651 46.7625L62.762 47.7C63.2196 48.2299 63.5174 48.8702 63.5823 49.5867L63.6292 50.1492L63.6877 50.7234C63.7153 51.0273 63.7558 51.3287 63.8284 51.614L63.969 52.1531L64.1096 52.7039C64.2362 53.2029 64.2952 53.7187 64.2854 54.239L64.2737 54.825L64.262 55.4226C64.2582 55.6505 64.2946 55.8495 64.3557 56.032L64.5315 56.571L64.7073 57.0984C64.8425 57.5008 64.9637 57.9145 65.0588 58.3289L65.176 58.8796L65.3049 59.4304C65.3865 59.7855 65.4738 60.144 65.5627 60.4968L65.7034 61.0359L65.844 61.5867C65.8917 61.7739 65.965 61.9624 66.0901 62.1492L66.4182 62.6414L66.7463 63.1218C67.0815 63.6211 67.3087 64.1779 67.4026 64.7742L67.4963 65.3367L67.5784 65.8992C67.6422 66.3081 67.6828 66.6924 67.6956 67.0359L67.7073 67.4343L67.7307 67.8445C67.7376 68.0469 67.7107 68.3699 67.5432 68.7117C67.3498 69.1062 67.0125 69.4124 66.5823 69.5554C66.2048 69.6793 65.8605 69.6429 65.6565 69.6023C65.4431 69.5596 65.2534 69.4936 65.1057 69.4265L64.0745 68.9578C63.6023 68.7428 63.1574 68.4616 62.7502 68.1257L62.2815 67.739L61.8245 67.364L61.262 67.446L60.6526 67.5281C60.0194 67.6109 59.384 67.5531 58.7776 67.3171L58.2502 67.1062L57.7229 66.907C57.2576 66.7256 56.8142 66.4813 56.3987 66.1921L55.9182 65.864L55.426 65.5242L55.4143 65.5125C55.4078 65.5121 55.3895 65.5098 55.3674 65.5125L54.1487 65.6531C53.334 65.7491 52.5636 65.5248 51.9338 64.9968L51.4651 64.5984L50.9963 64.2117C50.8259 64.0685 50.6636 63.9868 50.5159 63.9421L49.4377 63.614C49.1405 63.5244 48.8338 63.4555 48.5237 63.4031L47.9729 63.3093L47.4104 63.2156C47.1654 63.1741 46.9003 63.1589 46.6135 63.1804L46.0042 63.2273L45.4065 63.2742C44.8001 63.3195 44.1972 63.237 43.6252 63.0164L43.0979 62.8171L42.5706 62.6062C42.095 62.4222 41.6416 62.1705 41.2229 61.8679L40.7424 61.5281L40.262 61.1765C40.0069 60.9924 39.7496 60.8361 39.4885 60.7078L38.9729 60.45L38.4924 60.2156C38.4762 60.2172 38.4453 60.225 38.3987 60.239L37.7542 60.4265L37.1096 60.6257C36.3863 60.8431 35.5905 60.8396 34.8479 60.4734L34.344 60.2273L33.8284 59.9695C33.4012 59.7586 32.9869 59.5113 32.5979 59.2195L32.1292 58.8562L31.6487 58.4929C31.6205 58.4718 31.6025 58.4697 31.6018 58.4695C31.5966 58.4683 31.5822 58.4679 31.5549 58.4695L30.3596 58.5398C29.587 58.5841 28.8625 58.3523 28.262 57.8718L27.7932 57.4851L27.3127 57.1101C27.2301 57.0446 27.1718 57.0314 27.1135 57.0281L25.9651 56.9578C25.3405 56.9221 24.7457 56.7371 24.2073 56.4187L23.7151 56.1257L23.2112 55.8328C22.9774 55.6947 22.7386 55.5927 22.4963 55.5164L21.9573 55.3406L21.4182 55.1765C21.2628 55.1278 21.0776 55.1098 20.8557 55.1296L20.2581 55.1765L19.6487 55.2351C19.5786 55.2413 19.5077 55.2315 19.4377 55.2351C19.5309 55.3885 19.6196 55.5319 19.7307 55.6453L20.1174 56.0437L20.5159 56.4421C20.7944 56.7262 21.0701 57.024 21.3362 57.321L22.0862 58.1648C22.2345 58.3299 22.4121 58.4658 22.6135 58.5867L23.1057 58.8914L23.5979 59.1843C23.9808 59.414 24.3528 59.6606 24.6995 59.9343L25.1331 60.2859L25.5784 60.6375C26.0486 61.0087 26.427 61.4683 26.7034 61.9968L26.9729 62.5242L27.2542 63.0515C27.259 63.0539 27.2657 63.059 27.2776 63.0632L27.8518 63.2742L28.4377 63.4734C29.1148 63.713 29.6895 64.1442 30.0901 64.7625L30.7229 65.7468C30.8993 66.0191 31.0847 66.2798 31.2854 66.5203L32.012 67.3875C32.1357 67.5357 32.287 67.6595 32.469 67.7625L32.9729 68.0437L33.4768 68.3367C34.0675 68.6714 34.533 69.1481 34.8479 69.7429L35.1292 70.2703L35.3987 70.7976C35.4821 70.9554 35.5809 71.0689 35.6917 71.1492L36.6057 71.8054C36.9626 72.064 37.3056 72.3486 37.6252 72.6492L38.4456 73.4226C38.7736 73.7313 39.0795 74.0626 39.3596 74.4187L40.0627 75.3093C40.2395 75.534 40.4375 75.7469 40.6487 75.9304L41.0706 76.2937L41.4924 76.6687C41.8029 76.9386 42.105 77.2205 42.3948 77.5125L43.1917 78.3093C43.2044 78.3216 43.2607 78.3719 43.4377 78.4031L44.1057 78.5203L44.762 78.6257C45.3231 78.7233 45.8652 78.9531 46.3088 79.3406L46.719 79.7742L47.3987 80.6882C47.6896 81.075 47.9457 81.4966 48.1604 81.9421L48.4182 82.4812L48.6526 82.9851L49.8245 83.3601C50.3826 83.5368 50.9067 83.7987 51.3596 84.1687L51.7932 84.532L52.2268 84.8835C52.5545 85.1513 52.8755 85.4301 53.176 85.7273L53.9729 86.5242C54.3936 86.9405 54.7212 87.4501 54.9807 88.0007L55.2854 88.6453L55.6018 89.3015C55.6862 89.4809 55.7676 89.7128 55.8127 89.9695C55.8569 90.2224 55.8788 90.6055 55.7073 91.0125C55.2904 92 54.3098 92.095 53.9495 92.0906L53.3752 92.0789L52.7893 92.0671C52.4839 92.0633 52.1869 92.083 51.8987 92.1257L51.3362 92.2195L50.7737 92.3015C50.3899 92.3588 49.9995 92.4064 49.6135 92.4539L49.0627 92.5242L48.5002 92.5945C48.201 92.6313 47.8974 92.6893 47.6096 92.7703L46.5315 93.075C46.0686 93.2052 45.5954 93.2892 45.1135 93.321L44.5393 93.3562L43.9768 93.3914C43.7786 93.4044 43.5875 93.4489 43.4026 93.532L42.8752 93.7781L42.3596 94.0125C42.1029 94.1283 41.8435 94.2763 41.5862 94.4578L41.094 94.7976L40.5901 95.1492C39.932 95.613 39.1654 95.7898 38.3752 95.6531L37.7776 95.5476L37.1682 95.4421C37.0871 95.4286 37.0571 95.4382 37.0276 95.4539L35.9963 96.0164C35.5048 96.2809 34.9782 96.454 34.426 96.532L33.8635 96.614L33.301 96.6843C33.0149 96.7248 32.732 96.7947 32.4573 96.8835L31.9182 97.0593L31.3909 97.2351C30.7628 97.4381 30.1134 97.4474 29.4807 97.3171L28.8713 97.2L28.262 97.071C28.0343 97.0243 27.852 97.0292 27.6995 97.0593L26.5979 97.2703C26.3625 97.3168 26.125 97.4028 25.8948 97.5164L25.3792 97.7625L24.8635 98.0203C24.2533 98.3213 23.5877 98.4336 22.9182 98.3601L22.3323 98.2898L21.8518 98.2429L21.4299 98.6765L20.9612 99.1453C20.2968 99.807 19.4009 100.088 18.4534 99.8484L17.844 99.696L17.2229 99.532L17.1877 99.5203L16.6838 99.8015L16.1682 100.083C15.8073 100.282 15.4445 100.476 15.0784 100.657L14.0471 101.173C13.5597 101.413 13.0378 101.568 12.5002 101.641L11.9495 101.723L11.387 101.794C10.9949 101.847 10.5988 101.897 10.2034 101.934L9.62915 101.981L9.06665 102.04C8.88693 102.057 8.7066 102.067 8.52759 102.087C8.6987 102.097 8.87106 102.097 9.04321 102.134L10.1448 102.368C10.7426 102.495 11.2887 102.755 11.7737 103.118L12.2659 103.481L12.7581 103.856C12.7734 103.868 12.7894 103.866 12.7932 103.868L13.3792 103.809L13.9768 103.751L14.6331 103.762C15.2596 103.849 15.8103 104.151 16.2502 104.594L16.719 105.075L17.0471 105.403L17.4573 105.309L18.0667 105.169C18.5886 105.041 19.1243 104.971 19.6487 104.981L20.7971 105.005C21.3684 105.016 21.9234 105.133 22.4495 105.356L22.9768 105.579L23.5042 105.813C23.9244 105.992 24.3377 106.202 24.7346 106.446L25.2385 106.751L25.7424 107.067C25.9782 107.212 26.2117 107.322 26.4456 107.395L27.5237 107.723C27.619 107.753 27.7435 107.77 27.9221 107.735L28.5315 107.618L29.1409 107.489C29.8216 107.353 30.5148 107.411 31.1682 107.7L32.2229 108.169C32.6453 108.356 33.0572 108.58 33.4534 108.837L33.9573 109.165L34.3206 109.399L34.8831 109.2L35.5159 108.966C36.0693 108.761 36.6685 108.696 37.262 108.837L37.8479 109.048L38.3635 109.294L38.8792 109.552C39.1831 109.7 39.4959 109.833 39.8049 109.95L40.8596 110.348C41.2178 110.483 41.5808 110.618 41.9377 110.759L42.4768 110.969L43.0042 111.18C43.1705 111.245 43.3493 111.277 43.5432 111.274L44.1174 111.262L44.7034 111.251C45.2363 111.243 45.7647 111.322 46.2737 111.473L46.8127 111.637L47.3518 111.79C47.8364 111.934 48.2957 112.148 48.7346 112.411L49.2502 112.716L49.7542 113.02C49.8485 113.077 49.9287 113.094 50.0237 113.091L50.6096 113.079L51.1838 113.055C51.4814 113.046 51.7952 113.005 52.1213 112.938L52.7307 112.821L53.3401 112.692L54.1135 112.669C54.4642 112.72 54.864 112.875 55.1917 113.266C55.5085 113.645 55.5948 114.071 55.6018 114.368C55.6081 114.654 55.5412 114.907 55.4846 115.094L55.2971 115.727L55.1096 116.348C54.9315 116.937 54.6514 117.488 54.2424 117.954L53.4924 118.798C53.1619 119.174 52.7927 119.509 52.3792 119.794L51.9104 120.122L51.4417 120.438C51.068 120.695 50.672 120.926 50.2581 121.13L49.2034 121.645C49.0768 121.707 48.9908 121.792 48.9221 121.891L48.2659 122.829C47.9984 123.217 47.6929 123.588 47.3635 123.919L46.9768 124.317L46.5784 124.716C46.2302 125.066 45.8404 125.368 45.4182 125.63L44.4338 126.239C44.163 126.407 43.9015 126.583 43.6604 126.778L43.2268 127.141L42.7932 127.493C42.7192 127.553 42.6389 127.643 42.5706 127.809L42.3362 128.395L42.1018 128.969C41.7396 129.861 40.9985 130.404 40.1096 130.575L39.4534 130.704L39.0432 130.774L38.9377 131.149L38.762 131.782C38.571 132.44 38.2139 133.044 37.6604 133.505L37.2268 133.868L36.7932 134.219C36.4387 134.515 36.0598 134.782 35.6565 135.016L35.1526 135.309L34.6604 135.602C34.6335 135.618 34.595 135.635 34.5549 135.731L34.0862 136.88C33.7962 137.582 33.2877 138.145 32.5862 138.485L31.5315 139.001C31.3361 139.095 31.1771 139.207 31.051 139.341L30.2776 140.161C29.9512 140.508 29.5894 140.822 29.1995 141.098L28.7424 141.427L28.2737 141.755C28.0564 141.909 27.8642 142.087 27.6877 142.282L27.301 142.704L26.926 143.126C26.5797 143.509 26.1823 143.836 25.7424 144.11L24.7581 144.719C24.6952 144.759 24.6364 144.816 24.5823 144.93L24.0667 146.032C23.8333 146.528 23.5352 146.983 23.1643 147.38L22.3909 148.2C22.0714 148.541 21.7085 148.83 21.3127 149.079C21.3702 149.082 21.431 149.073 21.4885 149.079L22.0862 149.137L22.6956 149.196H22.7424C22.7451 149.195 22.7539 149.181 22.7659 149.173L23.2581 148.833L23.7385 148.481C24.3453 148.048 25.0495 147.858 25.7893 147.907L26.387 147.942L26.9963 147.977C27.1092 147.984 27.179 147.967 27.2424 147.93L27.7346 147.637L28.2385 147.356C28.4875 147.212 28.7312 147.028 28.9768 146.817L29.9143 146.02C30.4518 145.56 31.0853 145.353 31.7307 145.376L32.3752 145.481L33.0198 145.645L33.4182 145.739L33.6877 145.458L34.1213 144.966C34.6753 144.357 35.432 143.99 36.3127 144.016L36.9104 144.028L37.5081 144.052C37.9131 144.064 38.3191 144.087 38.7268 144.11L39.3245 144.134L39.9221 144.169C39.9376 144.17 39.9548 144.169 39.9573 144.169C39.9614 144.166 39.9707 144.165 39.9807 144.157L40.4612 143.77L40.9299 143.395C41.5008 142.943 42.1834 142.694 42.9221 142.692H44.094C44.4063 142.691 44.7072 142.67 44.9963 142.622L45.5588 142.528L46.1096 142.434C46.2406 142.412 46.3775 142.351 46.5198 142.247L47.4807 141.544C47.7931 141.315 48.1078 141.088 48.4182 140.852L49.3792 140.126L49.8831 139.809C50.4053 139.557 50.9821 139.472 51.5706 139.552L52.1799 139.634L52.801 139.716C52.9044 139.729 52.9396 139.719 52.9651 139.704L53.469 139.411L53.9612 139.13C54.2917 138.94 54.6275 138.748 54.9573 138.555L55.4495 138.262L55.9534 137.969C56.4059 137.705 56.8885 137.498 57.3948 137.372L57.9338 137.243L58.4846 137.102C58.9183 136.994 59.36 136.914 59.8088 136.868L60.3831 136.821L60.9573 136.762C61.4921 136.709 62.0348 136.733 62.5745 136.833L63.8167 137.067H63.8987L64.3909 136.774L64.8831 136.469C65.1027 136.338 65.393 136.186 65.7151 136.106C66.0109 136.033 66.6521 135.953 67.2385 136.399L67.4143 136.54L67.5901 136.669C68.1558 137.102 68.256 137.717 68.2698 138.028C68.2844 138.359 68.2171 138.674 68.1526 138.919L68.012 139.458L67.8713 140.009C67.7775 140.364 67.6791 140.718 67.5901 141.075L67.4612 141.626L67.3206 142.165C67.2089 142.612 67.0624 143.054 66.8752 143.477L66.6409 143.993L66.4182 144.52C66.2653 144.865 66.1031 145.207 65.9495 145.552L65.7268 146.067L65.4924 146.594C65.3717 146.866 65.2749 147.143 65.1995 147.427L65.0471 147.966L64.9065 148.516C64.8139 148.865 64.7315 149.219 64.6487 149.571L64.5081 150.11L64.3792 150.661C64.2779 151.091 64.1505 151.514 63.9924 151.927L63.594 152.981C63.4496 153.358 63.2905 153.737 63.1252 154.106L62.6565 155.137C62.6027 155.258 62.5794 155.397 62.5862 155.571L62.6331 156.766C62.6683 157.585 62.3774 158.328 61.8362 158.911L61.4143 159.368L61.0627 159.731L61.1565 160.247L61.262 160.868C61.3844 161.574 61.2942 162.294 60.9456 162.954L60.6877 163.458L60.4182 163.962C60.3264 164.136 60.2648 164.319 60.2424 164.512L60.1838 165.075L60.1135 165.649C60.0723 166.006 60.0345 166.366 60.0081 166.727L59.9729 167.302L59.926 167.876C59.8748 168.576 59.6178 169.212 59.1877 169.751L58.801 170.219L58.426 170.7C58.2235 170.954 58.055 171.215 57.9104 171.473L57.6292 171.977L57.3479 172.469C57.2459 172.652 57.1796 172.847 57.1487 173.044L57.0549 173.606L56.9729 174.157C56.9418 174.354 56.9389 174.59 56.9846 174.86L57.1956 176.102C57.3609 177.088 56.9785 177.955 56.2581 178.552L55.7424 178.985L55.2502 179.384V179.852L55.262 180.438C55.2662 180.814 55.2693 181.195 55.2854 181.575L55.3206 182.173L55.344 182.77C55.3562 183.059 55.3078 183.338 55.2502 183.614L55.6018 183.368L56.0588 183.028C56.2926 182.855 56.4994 182.659 56.6917 182.454L57.4651 181.634C57.63 181.457 57.7732 181.255 57.8987 181.024L58.1799 180.509L58.4612 180.005C58.6676 179.625 58.8919 179.258 59.1292 178.903L59.4456 178.423L59.762 177.954C60.1771 177.333 60.7644 176.918 61.4377 176.688L62.3518 176.372L62.4104 175.927L62.5042 175.235C62.5977 174.465 62.9297 173.711 63.6292 173.184L64.0862 172.833L64.5432 172.493C64.8235 172.282 65.0983 172.061 65.3635 171.837L66.2307 171.11C66.4665 170.911 66.6821 170.692 66.887 170.466L67.262 170.044L67.6487 169.634C67.8788 169.379 68.0904 169.107 68.3049 168.837L68.6565 168.403L69.0081 167.958C69.2913 167.601 69.6098 167.269 69.9456 166.962L70.3557 166.575L70.7776 166.2C71.0935 165.911 71.4265 165.637 71.7737 165.38L72.6877 164.7C72.9977 164.471 73.3127 164.236 73.6252 164.009L74.0823 163.68L74.551 163.341C74.711 163.224 74.8428 163.083 74.9495 162.919L75.2542 162.438L75.5706 161.958C75.7298 161.712 75.8776 161.44 76.0042 161.149L76.2385 160.61L76.4729 160.059C76.7926 159.324 77.3634 158.789 78.0901 158.489L78.6643 158.255L79.2268 158.009C79.3421 157.961 79.388 157.919 79.4143 157.88L79.7307 157.399L80.0354 156.907C80.342 156.427 80.7344 156.022 81.1956 155.688L81.6526 155.348L82.1213 155.009C82.3304 154.857 82.5133 154.683 82.6721 154.493L83.0354 154.071L83.3987 153.637C83.5473 153.459 83.6755 153.248 83.7854 153.005L84.0315 152.466L84.2776 151.915C84.4772 151.473 84.7063 151.05 84.9807 150.661L85.3088 150.204L85.637 149.735C85.9628 149.273 86.568 148.651 87.5002 148.622H87.8635L88.2151 148.61C89.2223 148.581 89.8742 149.264 90.1956 149.712L90.5471 150.204L90.8987 150.708C91.2562 151.206 91.5082 151.761 91.6135 152.372L91.7073 152.934L91.801 153.485C91.8809 153.951 91.9164 154.425 91.9065 154.903L91.8948 155.489L91.8831 156.063C91.881 156.158 91.8943 156.247 91.9534 156.344L92.2698 156.848L92.5745 157.352C92.8481 157.801 93.0566 158.28 93.1956 158.782L93.3479 159.321L93.5002 159.872C93.6986 160.593 93.6151 161.314 93.3713 161.969L92.9026 163.235L93.137 163.657L93.4182 164.161C93.7038 164.688 93.8706 165.261 93.9104 165.86L93.9456 166.434L93.9807 166.997C93.9939 167.196 94.0499 167.385 94.1331 167.571L94.6018 168.626C94.8321 169.141 94.9586 169.691 94.9885 170.255L95.0237 170.817L95.0471 171.391C95.0601 171.635 95.1111 171.871 95.1877 172.094L95.3635 172.622L95.551 173.161C95.6896 173.566 95.8077 173.976 95.9026 174.391L96.0315 174.942L96.1487 175.493C96.2199 175.805 96.314 176.113 96.4182 176.419L96.6057 176.958L96.7815 177.497C96.9256 177.919 97.0386 178.349 97.1213 178.786L97.2268 179.337L97.3323 179.899C97.3915 180.212 97.4741 180.52 97.5667 180.825L97.7307 181.364L97.8948 181.915C98.0421 182.402 98.1258 182.904 98.1409 183.415L98.1643 184.563C98.1687 184.705 98.2082 184.836 98.2815 184.973L98.844 186.005C99.1131 186.503 99.2873 187.037 99.3596 187.598L99.5002 188.723C99.552 189.126 99.5892 189.535 99.6174 189.942L99.6643 190.505L99.6995 191.079C99.707 191.18 99.7438 191.281 99.8284 191.407L100.156 191.911L100.496 192.403C100.755 192.788 100.986 193.193 101.188 193.598L101.645 194.512C101.73 194.34 101.801 194.156 101.914 193.997L102.617 193.012C102.798 192.758 102.949 192.504 103.063 192.251L103.297 191.723L103.496 191.255C103.493 191.243 103.492 191.226 103.485 191.208L103.239 190.563L102.981 189.93C102.659 189.11 102.692 188.187 103.25 187.387L103.602 186.895L103.942 186.403C104.12 186.147 104.263 185.884 104.375 185.63L104.61 185.114L104.832 184.587C104.931 184.362 104.999 184.13 105.031 183.895L105.114 183.333L105.196 182.782C105.262 182.312 105.366 181.847 105.524 181.399L105.711 180.86L105.899 180.333C105.913 180.293 105.94 180.209 105.899 180.052L105.735 179.442L105.571 178.821C105.385 178.104 105.43 177.352 105.77 176.653L106.028 176.137L106.274 175.622C106.365 175.434 106.418 175.243 106.438 175.048L106.496 174.473L106.555 173.911C106.629 173.179 106.954 172.546 107.422 172.024L107.844 171.544L108.278 171.063C108.352 170.979 108.358 170.936 108.36 170.923L108.406 170.348L108.442 169.786C108.455 169.595 108.433 169.363 108.36 169.094L108.196 168.473L108.02 167.864C107.769 166.949 107.993 166.048 108.629 165.356L109.074 164.876L109.426 164.477L109.344 164.032L109.215 163.423C109.093 162.808 109.11 162.183 109.285 161.571L109.438 161.032L109.59 160.481C109.717 160.039 109.892 159.611 110.094 159.192L110.34 158.665L110.598 158.149C110.678 157.982 110.716 157.812 110.727 157.634L110.797 156.485C110.838 155.77 111.105 155.131 111.535 154.587L112.285 153.602L112.215 153.063L112.133 152.466C112.041 151.796 112.135 151.13 112.426 150.509L112.66 149.981L112.906 149.466C113.059 149.138 113.369 148.645 113.961 148.387C114.29 148.245 114.611 148.215 114.899 148.247L115.637 148.481L116.071 148.704L116.504 148.938L116.973 149.255C117.4 149.614 117.679 150.082 117.852 150.567L118.063 151.141L118.262 151.727C118.326 151.908 118.411 152.021 118.496 152.102L119.317 152.876C119.556 153.103 119.805 153.325 120.067 153.532L120.957 154.235C121.321 154.523 121.669 154.84 121.977 155.184L122.727 156.028C123.031 156.369 123.301 156.74 123.547 157.13L123.864 157.61L124.168 158.091C124.34 158.362 124.52 158.622 124.719 158.864L125.082 159.298L125.434 159.731C125.618 159.955 125.823 160.162 126.043 160.352L126.477 160.727L126.899 161.091C127.146 161.304 127.411 161.508 127.684 161.7L128.153 162.028L128.621 162.368C129.22 162.789 129.631 163.37 129.852 164.044L130.039 164.63L130.239 165.227C130.302 165.418 130.379 165.541 130.461 165.626L130.86 166.024L131.258 166.434C131.447 166.626 131.655 166.804 131.891 166.962L132.371 167.278L132.852 167.606C133.239 167.865 133.607 168.145 133.942 168.462L134.352 168.848L134.762 169.247C135.08 169.548 135.377 169.868 135.653 170.208L136.016 170.653L136.367 171.087C136.461 171.202 136.587 171.302 136.766 171.391L137.305 171.661L137.832 171.93C138.575 172.301 139.084 172.928 139.321 173.7L139.508 174.298L139.684 174.907C139.765 175.17 139.871 175.38 139.989 175.552L140.645 176.489C140.733 176.616 140.843 176.726 140.996 176.817L141.5 177.122L142.004 177.415C142.433 177.669 142.831 177.966 143.188 178.305L144.008 179.079C144.29 179.347 144.566 179.624 144.84 179.899L146.41 181.469L146.821 181.856L147.219 182.243C147.377 182.396 147.526 182.566 147.664 182.735C147.661 182.521 147.657 182.305 147.688 182.091L147.781 181.469L147.852 180.907L147.5 180.509L147.102 180.04C146.665 179.534 146.362 178.935 146.258 178.259L146.094 177.134C146.01 176.588 146.015 176.033 146.106 175.481L146.211 174.872L146.305 174.251C146.346 173.999 146.34 173.789 146.305 173.618L146.199 173.067L146.082 172.516C146.063 172.422 146.011 172.311 145.895 172.177L145.496 171.708L145.086 171.251C144.753 170.867 144.47 170.454 144.231 170.02L143.668 169.012C143.296 168.339 143.214 167.6 143.352 166.88L143.469 166.259L143.586 165.626L143.281 165.18L142.93 164.7C142.641 164.291 142.402 163.856 142.215 163.399L141.793 162.344C141.646 161.983 141.496 161.619 141.36 161.255L140.961 160.2C140.801 159.773 140.675 159.335 140.586 158.887L140.481 158.337L140.375 157.774C140.269 157.239 140.252 156.693 140.317 156.145L140.457 154.927L139.731 153.966C139.268 153.358 139.056 152.64 139.11 151.88L139.156 151.27L139.192 150.673V150.626C139.189 150.621 139.187 150.612 139.18 150.602L138.817 150.122L138.453 149.653C138.173 149.282 137.925 148.89 137.703 148.493L137.141 147.485C136.75 146.783 136.677 146.016 136.848 145.282L137 144.649L137.082 144.262L136.766 143.981L136.274 143.548C135.946 143.261 135.661 142.887 135.5 142.423C135.339 141.954 135.326 141.477 135.418 141.04L135.559 140.419L135.688 139.786C135.713 139.662 135.694 139.622 135.688 139.61L135.196 138.579C135.143 138.47 135.088 138.35 135.043 138.227C135.013 138.143 134.932 137.905 134.926 137.618C134.923 137.477 134.923 137.13 135.137 136.774C135.405 136.329 135.864 136.091 136.309 136.048C136.662 136.014 136.933 136.107 137.047 136.153L137.352 136.317L137.598 136.469L137.739 136.563C137.78 136.574 137.857 136.596 137.985 136.61L138.559 136.669L139.121 136.727C139.52 136.77 139.922 136.822 140.317 136.88L141.442 137.044C141.718 137.084 142.014 137.104 142.321 137.091L142.906 137.067L143.504 137.032C144.252 136.999 144.959 137.215 145.555 137.665L146.035 138.028L146.504 138.391L146.528 138.403C146.531 138.403 146.547 138.404 146.563 138.403L147.172 138.356L147.77 138.309C148.506 138.251 149.217 138.437 149.832 138.86L150.313 139.188L150.805 139.528C151.075 139.714 151.348 139.88 151.625 140.02L152.129 140.278L152.645 140.536C152.929 140.68 153.219 140.804 153.512 140.911L154.051 141.11L154.578 141.298C154.669 141.33 154.792 141.349 154.977 141.321L156.219 141.134L156.899 141.11C157.339 141.153 157.746 141.309 158.106 141.555L158.61 141.989L159.055 142.469L159.383 142.844L159.84 142.786L160.449 142.692C161.096 142.596 161.75 142.653 162.371 142.903L162.899 143.114L163.414 143.325C163.868 143.507 164.306 143.737 164.715 144.016L165.207 144.356L165.688 144.684C165.797 144.759 165.905 144.794 166.016 144.802L166.59 144.837L167.164 144.884C167.63 144.916 168.087 144.984 168.535 145.094L169.086 145.235L169.637 145.364C170.257 145.518 170.806 145.827 171.278 146.243L171.746 146.653L172.098 146.969L172.637 146.876L173.258 146.759C173.869 146.638 174.499 146.63 175.11 146.794L175.649 146.946L176.199 147.087C176.577 147.188 176.951 147.301 177.324 147.415L178.403 147.743C178.788 147.861 179.172 147.989 179.551 148.13L180.078 148.329L180.606 148.516C180.883 148.619 181.172 148.698 181.461 148.762L181.391 148.716C180.748 148.248 180.37 147.576 180.196 146.864L180.043 146.219L179.961 145.915L179.61 145.88L178.918 145.798C178.041 145.693 177.219 145.237 176.785 144.333L176.528 143.782L176.27 143.243C176.199 143.096 176.122 143 176.035 142.938L175.567 142.61L175.11 142.282C174.56 141.891 174.153 141.365 173.891 140.759L173.645 140.196L173.41 139.634C173.311 139.404 173.187 139.232 173.059 139.094L172.672 138.673L172.285 138.262C172.058 138.019 171.817 137.783 171.571 137.559L171.16 137.184L170.739 136.809C170.677 136.754 170.573 136.683 170.364 136.634L169.098 136.329C168.226 136.124 167.533 135.562 167.188 134.7L166.719 133.552C166.623 133.313 166.515 133.129 166.391 132.989L165.641 132.145C165.551 132.044 165.427 131.96 165.254 131.887L164.703 131.653L164.141 131.419C163.542 131.169 163.027 130.782 162.629 130.259L162.278 129.802L161.938 129.344C161.833 129.206 161.7 129.096 161.539 129.005L161.035 128.723L160.531 128.43C160.148 128.212 159.781 127.974 159.43 127.716L158.973 127.376L158.516 127.048C157.979 126.652 157.588 126.124 157.332 125.524L157.086 124.95L156.852 124.387C156.796 124.257 156.73 124.201 156.676 124.165L155.739 123.532C155.385 123.296 155.036 123.047 154.707 122.782L154.274 122.43L153.828 122.067C153.536 121.831 153.241 121.589 152.949 121.352L152.082 120.649C151.601 120.258 151.228 119.765 150.969 119.208L150.711 118.657L150.477 118.13L149.914 117.942L149.328 117.731C149.083 117.645 148.72 117.499 148.414 117.227C148.249 117.08 148.032 116.833 147.91 116.477C147.779 116.09 147.8 115.689 147.934 115.341L148.028 115.106L148.11 114.872L148.403 114.368C148.509 114.231 148.616 114.121 148.707 114.04C148.906 113.862 149.133 113.712 149.352 113.583L149.856 113.278L150.36 112.985C150.9 112.666 151.498 112.477 152.129 112.446L152.703 112.423L153.278 112.387C153.551 112.374 153.819 112.339 154.074 112.27L154.614 112.118L155.153 111.977C155.355 111.922 155.562 111.822 155.774 111.684L156.278 111.368L156.781 111.04C157.273 110.721 157.809 110.498 158.387 110.395L158.949 110.302L159.5 110.196C160.163 110.079 160.818 110.17 161.434 110.384L162.067 110.594L162.699 110.817C162.725 110.826 162.745 110.826 162.758 110.829L163.25 110.606L163.766 110.372C164.133 110.203 164.507 110.043 164.879 109.891L165.406 109.669L165.934 109.458C166.484 109.233 167.064 109.134 167.656 109.153L168.242 109.165L168.817 109.188C169.135 109.198 169.452 109.187 169.754 109.153L170.317 109.094L170.879 109.024C170.934 109.018 171.014 108.997 171.137 108.895L171.617 108.497L172.11 108.098C172.51 107.768 172.937 107.482 173.387 107.255L174.418 106.739L175.004 106.516C175.59 106.37 176.184 106.426 176.739 106.622L178.004 107.067C178.181 107.129 178.246 107.104 178.25 107.102L178.789 106.95L179.328 106.786C179.547 106.721 179.772 106.623 179.996 106.481L180.5 106.165L180.992 105.848C181.664 105.423 182.431 105.289 183.196 105.438L184.414 105.673C184.543 105.697 184.61 105.682 184.66 105.661L185.715 105.216C185.995 105.096 186.271 104.95 186.547 104.782L187.051 104.466L187.567 104.161C188.251 103.744 189.021 103.631 189.781 103.798L190.391 103.938L191 104.067C191.047 104.077 191.073 104.08 191.082 104.079C191.086 104.078 191.093 104.073 191.106 104.067L191.621 103.798L192.137 103.54C192.744 103.227 193.408 103.099 194.082 103.165L194.668 103.223L195.078 103.259L195.371 102.93C195.231 102.865 195.085 102.809 194.949 102.731L194.434 102.438L193.93 102.145C193.604 101.959 193.274 101.78 192.946 101.606L192.43 101.337L191.961 101.079C191.953 101.081 191.939 101.086 191.926 101.091L191.305 101.278L190.684 101.477C189.819 101.746 188.922 101.608 188.188 101.02L187.707 100.634L187.239 100.247L186.688 100.341L186.09 100.434C185.144 100.574 184.322 100.204 183.723 99.5671L183.254 99.075L183.008 98.8054L182.668 98.9343L182.035 99.157C181.163 99.4676 180.231 99.3565 179.469 98.7351L178.989 98.3367L178.496 97.9382C178.39 97.8527 178.326 97.8474 178.285 97.8445L177.723 97.7976L177.149 97.7625C176.686 97.7289 176.226 97.6513 175.778 97.5398L175.239 97.4109L174.688 97.2703C174.243 97.1596 173.81 97.0092 173.387 96.825L172.86 96.5906L172.332 96.3679L172.309 96.3562C172.296 96.3555 172.249 96.3608 172.18 96.3796L171.571 96.5437L170.949 96.7078C170.248 96.8972 169.515 96.8759 168.817 96.5671L168.289 96.3328L167.762 96.1101C167.601 96.0389 167.439 95.9957 167.258 95.9929H166.684L166.098 95.9812C165.541 95.9736 165 95.8646 164.481 95.6648L163.942 95.4656L163.414 95.2546C163.174 95.1624 162.928 95.0996 162.676 95.0671L161.551 94.9265C161.172 94.8778 160.792 94.8287 160.414 94.7742L159.289 94.6101C158.541 94.5016 157.913 94.1287 157.414 93.6257L156.477 92.6882C156.316 92.5259 156.199 92.4639 156.125 92.4421L155.574 92.2898L155.035 92.1375C155.031 92.1366 155.02 92.136 155 92.1375C154.97 92.14 154.906 92.1484 154.813 92.1843L153.547 92.6765C153.135 92.8357 152.657 92.9174 152.153 92.8289C151.642 92.7388 151.213 92.4861 150.875 92.1726L150.406 91.739L150.02 91.3757L149.879 91.4109C149.799 91.4282 149.348 91.5389 148.86 91.3289C148.544 91.1925 148.226 90.9217 148.051 90.5085C147.895 90.1378 147.922 89.8055 147.957 89.6179C148.021 89.2767 148.181 89.0243 148.239 88.9382C148.32 88.8159 148.414 88.7054 148.496 88.6101L148.871 88.1765L149.235 87.7546C149.465 87.4894 149.696 87.2132 149.914 86.9343L150.266 86.489L150.617 86.032C150.803 85.7937 150.974 85.5356 151.133 85.2585L151.426 84.7429L151.719 84.239C152.012 83.7279 152.394 83.2797 152.867 82.9265L153.781 82.2468C154.255 81.8948 154.792 81.6594 155.364 81.5085L156.606 81.1804L156.617 81.1687L156.91 80.6882L157.215 80.1843C157.38 79.9063 157.533 79.6097 157.672 79.2937L158.164 78.1687C158.424 77.5793 158.811 77.0618 159.336 76.6687L159.793 76.3406L160.25 76.0007C160.706 75.6594 161.213 75.405 161.762 75.239L162.371 75.0632L162.969 74.8757C163.077 74.843 163.108 74.8122 163.121 74.7937L163.461 74.325L163.789 73.8562C163.953 73.63 164.103 73.3784 164.235 73.0945L164.75 71.9929L165.067 71.4539C165.44 70.9633 165.96 70.6291 166.567 70.4578L167.785 70.1062C168.038 70.0347 168.229 69.9416 168.371 69.8367L168.828 69.4968L169.285 69.1687C169.298 69.1594 169.336 69.12 169.379 68.9812L169.578 68.3601L169.766 67.739C169.985 67.0286 170.418 66.3986 171.09 65.9812L171.571 65.6882L172.063 65.3835C172.483 65.1224 172.933 64.8985 173.41 64.7273L173.985 64.5281L174.559 64.3171C174.591 64.3057 174.611 64.2981 174.617 64.2937C174.619 64.2915 174.635 64.2812 174.641 64.2703L174.934 63.7546L175.227 63.2507C175.516 62.7458 175.889 62.3048 176.352 61.95L176.797 61.5984L177.254 61.2585C177.33 61.1994 177.409 61.1116 177.477 60.9539L177.711 60.3914L177.957 59.8171C178.26 59.1142 178.783 58.5605 179.492 58.2351L180.571 57.7429C180.932 57.5769 181.296 57.414 181.66 57.2507L182.211 57.0046L182.75 56.7585C182.776 56.7471 182.79 56.7407 182.797 56.7351C182.801 56.7309 182.815 56.7113 182.832 56.6765L183.102 56.1375L183.371 55.6101C183.388 55.5773 183.402 55.5375 183.418 55.5046C183.324 55.5133 183.232 55.5364 183.137 55.5398L181.965 55.5867C181.888 55.5898 181.825 55.6079 181.742 55.6687L180.781 56.3718C180.115 56.8609 179.332 57.0205 178.543 56.8875L177.301 56.6765C177.069 56.6375 176.891 56.653 176.75 56.6882L176.199 56.8289L175.66 56.9578C175.277 57.0541 174.888 57.1463 174.5 57.2273L173.399 57.4617C173.398 57.4619 173.391 57.4634 173.375 57.4734C173.356 57.4857 173.307 57.519 173.246 57.5906L172.813 58.0945L172.379 58.6101C171.931 59.1385 171.356 59.5584 170.645 59.7468L170.106 59.8875L169.555 60.0281C169.051 60.1615 168.534 60.2261 168.008 60.2156L167.41 60.2039L166.824 60.1921C166.715 60.19 166.635 60.2131 166.555 60.2625L165.571 60.8718C165.172 61.1185 164.757 61.3309 164.328 61.5046L163.274 61.9265C162.59 62.2033 161.878 62.2204 161.199 62.0554L160.567 61.9031L159.946 61.7507L159.535 62.0437L159.043 62.3835C158.6 62.6897 158.114 62.9189 157.602 63.075L157.074 63.239L156.535 63.4031C155.99 63.569 155.417 63.6294 154.848 63.5906L154.25 63.5554L153.735 63.5085L153.313 63.9421L152.867 64.3875C152.425 64.8314 151.901 65.1801 151.297 65.3835L150.77 65.5593L150.231 65.7468C149.754 65.9072 149.258 66.0018 148.754 66.0398L147.606 66.1335C147.303 66.1565 147.01 66.194 146.727 66.2625L146.176 66.4031L145.637 66.532C145.371 66.5964 145.104 66.6829 144.852 66.8015L143.821 67.2937C143.421 67.4811 143.008 67.6408 142.59 67.7742L142.051 67.9382L141.524 68.114C140.913 68.3088 140.281 68.3357 139.66 68.2312L139.039 68.1257L138.5 68.032L138.102 68.3835L137.645 68.782C137.551 68.8637 137.43 68.9676 137.305 69.0515C137.245 69.0915 137.134 69.1575 137 69.2156C136.921 69.25 136.536 69.4143 136.051 69.3093C135.744 69.2421 135.425 69.0673 135.184 68.7585C134.962 68.4749 134.889 68.1852 134.867 67.9968C134.831 67.6624 134.915 67.3884 134.938 67.3171C135 67.1247 135.098 66.9612 135.149 66.8718L135.395 66.4148L135.629 66.0046C135.629 65.9872 135.637 65.9538 135.629 65.9109L135.5 65.2898L135.383 64.6687C135.241 63.9204 135.349 63.1561 135.77 62.4773L136.086 61.9851L136.391 61.4929C136.543 61.248 136.661 60.9955 136.754 60.7429L136.953 60.2156L137.141 59.6765C137.2 59.515 137.24 59.3366 137.235 59.1257L137.211 58.5281L137.199 57.9304C137.186 57.4674 137.205 57.0105 137.258 56.5593L137.317 55.9851L137.387 55.4226L137.516 54.8367C137.7 54.287 138.038 53.8222 138.465 53.4539L139.473 52.5867C139.641 52.4417 139.69 52.3357 139.707 52.282L139.883 51.7546L140.059 51.2156C140.136 50.9801 140.193 50.7287 140.211 50.4656L140.281 49.3171C140.305 48.9748 140.32 48.6275 140.317 48.2742V47.6882L140.305 47.0906C140.299 46.4844 140.424 45.8971 140.68 45.3445L140.914 44.8289L141.16 44.3132C141.239 44.1443 141.278 43.9624 141.289 43.7625L141.324 43.1882L141.36 42.6023C141.4 41.9227 141.63 41.2951 142.028 40.7507L142.731 39.7898C142.771 39.7343 142.79 39.6968 142.789 39.6375L142.778 39.0398L142.766 38.4539C142.749 37.6415 143.049 36.916 143.586 36.3445L144.02 35.8875L144.442 35.4304C144.612 35.2495 144.722 35.0793 144.781 34.9265L144.981 34.3992L145.192 33.8718C145.334 33.5075 145.482 33.1426 145.637 32.782L145.86 32.2664L146.082 31.739C146.196 31.4721 146.285 31.1989 146.352 30.9187L146.481 30.3679L146.621 29.8171C146.694 29.5113 146.748 29.1985 146.785 28.8796L146.844 28.3054L146.914 27.7429C146.96 27.352 147.011 26.9591 147.067 26.571L147.231 25.446C147.286 25.0621 147.343 24.6791 147.406 24.2976L147.594 23.1726C147.645 22.8649 147.71 22.5608 147.781 22.2585C147.637 22.3198 147.499 22.3998 147.348 22.446L146.727 22.6335L146.352 22.7507L146.281 23.1726L146.153 23.8289C145.999 24.6345 145.559 25.357 144.781 25.7976L143.75 26.3835C143.544 26.5014 143.373 26.6413 143.235 26.7937L142.86 27.2039L142.485 27.6257C142.315 27.8127 142.158 28.0194 142.028 28.2585L141.758 28.7742L141.477 29.2781C141.148 29.8813 140.661 30.3517 140.059 30.6726L139.531 30.9539L139.016 31.2351C138.905 31.2944 138.842 31.3619 138.793 31.446L138.5 31.9382L138.207 32.4421C137.809 33.126 137.196 33.5781 136.485 33.8132L135.266 34.2117C135.25 34.2168 135.238 34.2201 135.231 34.2234L134.985 34.7156L134.715 35.2312C134.409 35.8265 133.965 36.3166 133.391 36.6609L132.887 36.9539L132.383 37.2585L132.371 37.2703C132.367 37.2786 132.367 37.295 132.36 37.3171L131.985 38.5125C131.789 39.1344 131.447 39.6911 130.953 40.1414L130.543 40.5281L130.121 40.9031C129.973 41.0386 129.841 41.1987 129.735 41.3953L129.465 41.9109L129.184 42.4265C128.888 42.9742 128.48 43.4337 127.965 43.7859L127.004 44.4421C126.755 44.6124 126.522 44.7929 126.313 44.9929L125.914 45.3914L125.504 45.7781C125.114 46.1511 124.669 46.4529 124.18 46.6921L123.641 46.9617L123.102 47.2195C122.875 47.3305 122.687 47.4629 122.539 47.6062L122.129 48.0046L121.731 48.3914C121.718 48.4038 121.662 48.46 121.625 48.6492L121.496 49.3054L121.367 49.95C121.245 50.5756 121.007 51.1718 120.606 51.6843L119.903 52.575C119.539 53.0371 119.093 53.4074 118.578 53.6882L118.051 53.9812L117.535 54.2625C117.303 54.3889 117.103 54.535 116.938 54.696L116.539 55.0828L116.141 55.4812C115.915 55.702 115.581 55.9579 115.145 56.0906C114.651 56.2403 114.111 56.1972 113.633 55.9265L113.328 55.7507L113.012 55.575C112.403 55.23 112.053 54.6598 111.84 54.1804L111.606 53.6531L111.371 53.1375C111.113 52.5548 111.007 51.9294 111.055 51.2976L111.149 50.1257C111.18 49.7152 111.217 49.2973 111.266 48.8835L111.406 47.6882C111.419 47.5758 111.407 47.5024 111.371 47.4304L111.114 46.9148L110.844 46.3992C110.558 45.8319 110.428 45.2173 110.446 44.5828L110.457 43.9968V43.4578L110 42.989L109.531 42.5203C109.1 42.0804 108.751 41.5674 108.535 40.9851L108.348 40.4578L108.149 39.9187C107.992 39.4934 107.862 39.0609 107.774 38.6179L107.668 38.0671L107.551 37.5164C107.408 36.8028 107.528 36.1015 107.785 35.4656L108.043 34.821L108.278 34.2234L108.067 33.8484L107.762 33.3328C107.503 32.8828 107.305 32.4012 107.176 31.9031L107.035 31.364L106.895 30.8132C106.796 30.4324 106.708 30.0493 106.625 29.6648L106.391 28.5632C106.28 28.0444 106.251 27.5139 106.297 26.9812L106.344 26.3835L106.403 25.8328C106.4 25.8284 106.399 25.8189 106.391 25.8093L105.992 25.3171L105.594 24.8367C105.072 24.202 104.829 23.4205 104.949 22.5867L105.043 21.989L105.125 21.3914C105.128 21.3745 105.125 21.3599 105.125 21.3562L105.114 21.3328L104.785 20.8406L104.457 20.3367C104.188 19.9286 103.95 19.5012 103.766 19.0593L103.555 18.532L103.332 18.0046C103.08 17.399 103.004 16.7604 103.086 16.1179L103.156 15.5203L103.239 14.9226C103.276 14.6289 103.285 14.3523 103.262 14.0906L103.203 13.5164L103.156 12.9539C103.136 12.7239 103.09 12.5013 103.004 12.2859L102.781 11.7585L102.571 11.2312C102.428 10.8761 102.288 10.5207 102.149 10.1648L101.949 9.62573L101.739 9.09839C101.633 8.82646 101.558 8.5485 101.516 8.26636L101.422 8.39526ZM6.87524 102.298C6.77374 102.311 6.66235 102.356 6.5354 102.438L7.00415 102.274L6.87524 102.298Z" fill="#085F82"/>
</svg>
